<svg xmlns="http://www.w3.org/2000/svg" viewBox="0 0 500 500"><g id="freepik--Floor--inject-89"><path id="freepik--floor--inject-89" d="M77.66,240c-95.18,54.95-95.17,144,0,199s249.49,54.95,344.67,0,95.17-144,0-199S172.84,185,77.66,240Z" style="fill:#f5f5f5"></path></g><g id="freepik--Arrows--inject-89"><g id="freepik--arrows--inject-89"><path d="M278.64,303.6l-9.78,2.47,13,17.17,64.69-16.33-28.3-37.35-29.75,7.51,4.1,5.42c-50.41-8.7-106.46-1.74-146.21,19.46l30.91,14.25C205.72,302.6,243.79,298.15,278.64,303.6ZM141,348.29l5,6.25,29.52-7.81-29.42-37.06-64.18,17,13.53,17,8.41-2.23c-14.76,29-2.66,61.2,33.92,84l24.69-17.86C138.54,391,131,368.64,141,348.29Zm76.35,80.21,10.23-2.62-13.18-17.13-64.52,16.54,28.65,37.26,29.67-7.61-4-5.21c50.76,9.06,107.45,2.17,147.56-19.23l-30.91-14.24C291.87,430.14,252.8,434.5,217.38,428.5Zm186.78-42.25-8.7,2.38c13-28.38.55-59.45-35-81.69L335.73,324.8c23,16,30.93,37.32,22.56,57l-4.94-6L324,383.86l30.3,36.82,63.77-17.5Z" style="fill:#5373FF"></path><path d="M278.64,303.6l-9.78,2.47,13,17.17,64.69-16.33-28.3-37.35-29.75,7.51,4.1,5.42c-50.41-8.7-106.46-1.74-146.21,19.46l30.91,14.25C205.72,302.6,243.79,298.15,278.64,303.6ZM141,348.29l5,6.25,29.52-7.81-29.42-37.06-64.18,17,13.53,17,8.41-2.23c-14.76,29-2.66,61.2,33.92,84l24.69-17.86C138.54,391,131,368.64,141,348.29Zm263.13,38-8.7,2.38c13-28.38.55-59.45-35-81.69L335.73,324.8c23,16,30.93,37.32,22.56,57l-4.94-6L324,383.86l30.3,36.82,63.77-17.5ZM217.38,428.5l10.23-2.62-13.18-17.13-64.52,16.54,28.65,37.26,29.67-7.61-4-5.21c50.76,9.06,107.45,2.17,147.56-19.23l-30.91-14.24C291.87,430.14,252.8,434.5,217.38,428.5Z" style="fill:#fff;opacity:0.55"></path></g></g><g id="freepik--Gears--inject-89"><g id="freepik--gears--inject-89"><path id="freepik--Gear--inject-89" d="M358.07,71.53h0a19.57,19.57,0,0,1-3.25,0,20,20,0,0,1-3.22-.5,1,1,0,0,1-.78-1.09l.2-2.71a16.34,16.34,0,0,1-4-2l-2,1.78a1,1,0,0,1-1.34,0,19.14,19.14,0,0,1-4.24-4.9,1,1,0,0,1,.21-1.33l2.06-1.78a16.38,16.38,0,0,1-1.39-4.19l-2.71-.2a1,1,0,0,1-1-.94,20.88,20.88,0,0,1,0-3.26,20.43,20.43,0,0,1,.51-3.21,1,1,0,0,1,1.09-.79l2.71.2a16.46,16.46,0,0,1,2-3.95l-1.78-2.06a1,1,0,0,1,0-1.34A19.29,19.29,0,0,1,346,35.08a1,1,0,0,1,1.32.21l1.78,2.05a15.92,15.92,0,0,1,4.2-1.38l.2-2.72a1,1,0,0,1,.93-1,20.28,20.28,0,0,1,6.47.48,1.05,1.05,0,0,1,.79,1.09l-.2,2.71a15.76,15.76,0,0,1,3.95,2l2.05-1.78a1.06,1.06,0,0,1,1.35,0,19.54,19.54,0,0,1,4.24,4.9,1,1,0,0,1-.22,1.33l-2.06,1.77a16.19,16.19,0,0,1,1.39,4.2l2.71.2a1,1,0,0,1,1,.94,20.7,20.7,0,0,1,0,3.25,21.1,21.1,0,0,1-.5,3.22,1,1,0,0,1-1.09.79h0l-2.71-.2a16.21,16.21,0,0,1-2,3.94l1.77,2.06a1,1,0,0,1,0,1.34,19.28,19.28,0,0,1-4.9,4.24,1,1,0,0,1-1.33-.21l-1.77-2a16.63,16.63,0,0,1-4.21,1.38L359,70.58A1,1,0,0,1,358.07,71.53Zm-11.14-7.37a.45.45,0,0,1,.35.09,15.32,15.32,0,0,0,4.37,2.19.5.5,0,0,1,.34.5l-.23,3.11a15.49,15.49,0,0,0,3.09.53,18.73,18.73,0,0,0,3.09,0l.27-3.16a.5.5,0,0,1,.41-.45,14.9,14.9,0,0,0,4.64-1.53.51.51,0,0,1,.6.12l2,2.35a17.41,17.41,0,0,0,4.72-4l-2-2.41a.5.5,0,0,1,0-.62,15.08,15.08,0,0,0,2.19-4.35.49.49,0,0,1,.51-.34l3.09.22a.07.07,0,0,0,.06,0,20.46,20.46,0,0,0,.48-3.06,18.7,18.7,0,0,0,0-3.09l-3.14-.27a.49.49,0,0,1-.45-.42,15.31,15.31,0,0,0-1.54-4.63.49.49,0,0,1,.12-.6l2.35-2a17.63,17.63,0,0,0-4-4.73l-2.42,2a.48.48,0,0,1-.61,0,15.14,15.14,0,0,0-4.36-2.19.49.49,0,0,1-.35-.5l.23-3.11a15.37,15.37,0,0,0-3.09-.53,18.6,18.6,0,0,0-3.08,0l-.28,3.16a.48.48,0,0,1-.41.45,14.81,14.81,0,0,0-4.64,1.53.51.51,0,0,1-.6-.12l-2-2.35a17.46,17.46,0,0,0-4.74,4l2,2.42a.5.5,0,0,1,0,.61,15,15,0,0,0-2.2,4.36.49.49,0,0,1-.51.34l-3.09-.22a14.54,14.54,0,0,0-.54,3.08,17.83,17.83,0,0,0,0,3.1l3.15.27a.51.51,0,0,1,.45.42,15.14,15.14,0,0,0,1.53,4.62.48.48,0,0,1-.11.6l-2.36,2a17.63,17.63,0,0,0,4,4.73l2.42-2A.48.48,0,0,1,346.93,64.16Zm10.63-2.85a9.54,9.54,0,0,1-8.53-3.2,9.66,9.66,0,0,1-1.37-10.4,9,9,0,0,1,5.66-4.89A9.56,9.56,0,0,1,364.78,56.1,9,9,0,0,1,359.12,61h0A10.8,10.8,0,0,1,357.56,61.31ZM355,43.48a10.22,10.22,0,0,0-1.42.29,8,8,0,0,0-5,4.35A8.57,8.57,0,0,0,358.85,60h0a8,8,0,0,0,5-4.35,8.64,8.64,0,0,0-1.22-9.34A8.55,8.55,0,0,0,355,43.48Z" style="fill:#e0e0e0"></path><path id="freepik--gear--inject-89" d="M128.5,75.56h0a20.85,20.85,0,0,1-3.26,0,20.08,20.08,0,0,1-3.21-.52,1.05,1.05,0,0,1-.78-1.1l.22-2.71a16.27,16.27,0,0,1-3.94-2L115.43,71a1,1,0,0,1-1.34,0,19.53,19.53,0,0,1-4.21-4.93,1,1,0,0,1,.22-1.32L112.17,63a16.5,16.5,0,0,1-1.36-4.2l-2.71-.22a1,1,0,0,1-1-.94,19.71,19.71,0,0,1,0-3.26,19.37,19.37,0,0,1,.53-3.21,1,1,0,0,1,1.09-.78l2.71.21a16.65,16.65,0,0,1,2-3.94l-1.77-2.06a1.06,1.06,0,0,1,0-1.35,19.81,19.81,0,0,1,4.93-4.2,1,1,0,0,1,1.33.22l1.76,2.07A15.71,15.71,0,0,1,123.93,40l.21-2.72a1,1,0,0,1,1-1,18.55,18.55,0,0,1,3.25,0,19.72,19.72,0,0,1,3.21.52,1,1,0,0,1,.78,1.09l-.22,2.72a15.9,15.9,0,0,1,3.94,2l2.07-1.76a1.06,1.06,0,0,1,1.34,0,19.5,19.5,0,0,1,4.21,4.93,1,1,0,0,1-.22,1.33l-2.07,1.76a16.21,16.21,0,0,1,1.37,4.21l2.7.22a1,1,0,0,1,1,.94,19.88,19.88,0,0,1-.51,6.46,1,1,0,0,1-1.1.79h0l-2.71-.22a15.93,15.93,0,0,1-2,3.94l1.76,2.06a1,1,0,0,1,0,1.35,19.5,19.5,0,0,1-4.93,4.21,1,1,0,0,1-1.32-.22l-1.77-2.07a16,16,0,0,1-4.21,1.36l-.21,2.71A1,1,0,0,1,128.5,75.56Zm-11.09-7.44a.45.45,0,0,1,.35.09,15.13,15.13,0,0,0,4.35,2.21.49.49,0,0,1,.34.51l-.24,3.1a14.13,14.13,0,0,0,3.08.55,17.71,17.71,0,0,0,3.09,0l.29-3.15a.49.49,0,0,1,.42-.45,15.21,15.21,0,0,0,4.64-1.5.47.47,0,0,1,.6.12l2,2.36a17.59,17.59,0,0,0,4.75-4l-2-2.43a.48.48,0,0,1,0-.61,15.11,15.11,0,0,0,2.22-4.34.49.49,0,0,1,.51-.34l3.09.25a.08.08,0,0,0,.06,0,20.09,20.09,0,0,0,.49-3.06,17.71,17.71,0,0,0,0-3.09L142.28,54a.5.5,0,0,1-.45-.41,15.07,15.07,0,0,0-1.5-4.65.48.48,0,0,1,.12-.6l2.36-2a17.43,17.43,0,0,0-4-4.75l-2.43,2a.51.51,0,0,1-.61,0,15,15,0,0,0-4.35-2.22.48.48,0,0,1-.34-.5l.24-3.11a15.3,15.3,0,0,0-3.08-.55,18.74,18.74,0,0,0-3.09,0l-.29,3.15a.49.49,0,0,1-.42.45,14.84,14.84,0,0,0-4.64,1.5.5.5,0,0,1-.6-.12l-2-2.36a17.6,17.6,0,0,0-4.76,4l2,2.43a.5.5,0,0,1,0,.61,15.07,15.07,0,0,0-2.23,4.35.5.5,0,0,1-.51.34l-3.09-.25a14.68,14.68,0,0,0-.56,3.09,18.76,18.76,0,0,0,0,3.09l3.15.29a.5.5,0,0,1,.45.42,15.22,15.22,0,0,0,1.51,4.64.51.51,0,0,1-.12.6l-2.37,2a17.76,17.76,0,0,0,4,4.75l2.43-2A.54.54,0,0,1,117.41,68.12Zm10.65-2.79a9.55,9.55,0,0,1-8.51-3.25,9.67,9.67,0,0,1-1.31-10.41,9,9,0,0,1,5.69-4.85,9.56,9.56,0,0,1,11.38,13.35A9,9,0,0,1,129.62,65h0A10.76,10.76,0,0,1,128.06,65.33Zm-2.45-17.84a8.79,8.79,0,0,0-1.41.28,8,8,0,0,0-5.06,4.32,8.57,8.57,0,0,0,10.22,12h0a8,8,0,0,0,5.06-4.32,8.67,8.67,0,0,0-1.17-9.35A8.57,8.57,0,0,0,125.61,47.49Z" style="fill:#e0e0e0"></path><path id="freepik--gear--inject-89" d="M102.52,188h0a16,16,0,0,1-2.77,0,15.44,15.44,0,0,1-2.73-.48.94.94,0,0,1-.68-1l.15-2.45a13.59,13.59,0,0,1-3.38-1.81l-1.73,1.58a.83.83,0,0,1-1.14,0,17.88,17.88,0,0,1-3.64-4.46,1,1,0,0,1,.17-1.2l1.74-1.59a15.31,15.31,0,0,1-1.21-3.8l-2.31-.2a.91.91,0,0,1-.82-.85,18.06,18.06,0,0,1,0-2.94,17.61,17.61,0,0,1,.41-2.9.86.86,0,0,1,.92-.7l2.3.19a15,15,0,0,1,1.67-3.55L87.86,160a1,1,0,0,1,0-1.21A16.41,16.41,0,0,1,92,155a.85.85,0,0,1,1.13.2L94.64,157a12.37,12.37,0,0,1,3.57-1.22l.15-2.46a.89.89,0,0,1,.79-.86,15.9,15.9,0,0,1,2.76,0,15.39,15.39,0,0,1,2.74.48.94.94,0,0,1,.68,1l-.15,2.46a13.4,13.4,0,0,1,3.37,1.81l1.74-1.58a.84.84,0,0,1,1.14,0,17.53,17.53,0,0,1,3.64,4.46,1,1,0,0,1-.17,1.2l-1.74,1.58a16,16,0,0,1,1.21,3.81l2.31.2a.91.91,0,0,1,.82.85,19,19,0,0,1,0,2.93,19.41,19.41,0,0,1-.41,2.91.87.87,0,0,1-.92.7h0l-2.31-.2a14.58,14.58,0,0,1-1.66,3.55l1.52,1.87a1,1,0,0,1,0,1.21,16.62,16.62,0,0,1-4.15,3.8.85.85,0,0,1-1.13-.2L107,183.42a12.78,12.78,0,0,1-3.57,1.22l-.15,2.45A.89.89,0,0,1,102.52,188ZM93,181.22a.38.38,0,0,1,.3.08,12.9,12.9,0,0,0,3.72,2,.45.45,0,0,1,.3.46l-.17,2.8a12.46,12.46,0,0,0,2.63.5,14.44,14.44,0,0,0,2.63,0l.21-2.85a.42.42,0,0,1,.34-.4,12.36,12.36,0,0,0,3.94-1.35.41.41,0,0,1,.51.11l1.74,2.13a14.54,14.54,0,0,0,4-3.59l-1.74-2.2a.47.47,0,0,1,0-.55,13.54,13.54,0,0,0,1.84-3.92.42.42,0,0,1,.43-.3l2.63.22s0,0,0,0a18,18,0,0,0,.35-5.55l-2.68-.26a.45.45,0,0,1-.39-.38,14.51,14.51,0,0,0-1.34-4.2.46.46,0,0,1,.1-.54l2-1.81a16,16,0,0,0-3.45-4.3l-2,1.82a.41.41,0,0,1-.52,0,12.7,12.7,0,0,0-3.72-2,.44.44,0,0,1-.3-.46l.17-2.8a12.58,12.58,0,0,0-2.63-.5,14.44,14.44,0,0,0-2.63,0L99,156.22a.43.43,0,0,1-.35.4A12.15,12.15,0,0,0,94.74,158a.41.41,0,0,1-.51-.11l-1.74-2.13a14.71,14.71,0,0,0-4,3.58l1.75,2.2a.45.45,0,0,1,0,.55A13.76,13.76,0,0,0,88.43,166a.42.42,0,0,1-.43.31l-2.64-.23a14.32,14.32,0,0,0-.44,2.79,18.7,18.7,0,0,0,0,2.8l2.68.26a.46.46,0,0,1,.39.38,14.63,14.63,0,0,0,1.33,4.19.44.44,0,0,1-.09.54l-2,1.82a15.82,15.82,0,0,0,3.45,4.3l2-1.82A.37.37,0,0,1,93,181.22Zm9-2.5a8,8,0,0,1-7.27-2.95,9.17,9.17,0,0,1-1.24-9.4A7.67,7.67,0,0,1,98.29,162a8,8,0,0,1,8.6,2.67,9.17,9.17,0,0,1,1.24,9.4,7.67,7.67,0,0,1-4.78,4.38h0A9,9,0,0,1,102,178.72ZM99.73,162.6a7.32,7.32,0,0,0-1.2.25,6.86,6.86,0,0,0-4.26,3.89,8.26,8.26,0,0,0,1.11,8.45,7.18,7.18,0,0,0,7.73,2.39h0a6.82,6.82,0,0,0,4.25-3.89,8.23,8.23,0,0,0-1.1-8.45A7.17,7.17,0,0,0,99.73,162.6Z" style="fill:#e0e0e0"></path><path id="freepik--gear--inject-89" d="M411.27,182.49h0a14.7,14.7,0,0,1-2.3,0,12.94,12.94,0,0,1-2.27-.35.75.75,0,0,1-.56-.77l.14-1.92a11.4,11.4,0,0,1-2.79-1.4L402,179.32a.73.73,0,0,1-.95,0,14,14,0,0,1-3-3.46.75.75,0,0,1,.15-.94l1.46-1.26a11.44,11.44,0,0,1-1-3l-1.92-.14a.75.75,0,0,1-.68-.67,13.59,13.59,0,0,1,0-2.3,14.5,14.5,0,0,1,.36-2.27.73.73,0,0,1,.77-.56l1.91.14a11.62,11.62,0,0,1,1.41-2.79l-1.26-1.45a.74.74,0,0,1,0-.95,13.76,13.76,0,0,1,3.47-3,.72.72,0,0,1,.94.15l1.25,1.45a11.64,11.64,0,0,1,3-1l.14-1.92a.73.73,0,0,1,.66-.68,14.7,14.7,0,0,1,2.3,0,14,14,0,0,1,2.27.36.73.73,0,0,1,.56.77l-.14,1.92a11.06,11.06,0,0,1,2.79,1.4l1.45-1.25a.74.74,0,0,1,.95,0,13.65,13.65,0,0,1,3,3.47.75.75,0,0,1-.15.94l-1.46,1.25a11.64,11.64,0,0,1,1,3l1.92.14a.74.74,0,0,1,.68.66,14.69,14.69,0,0,1,0,2.3,15,15,0,0,1-.36,2.28.71.71,0,0,1-.77.55h0l-1.91-.14a11.26,11.26,0,0,1-1.41,2.79l1.26,1.45a.74.74,0,0,1,0,1,13.83,13.83,0,0,1-3.47,3,.74.74,0,0,1-.94-.15L415,178.92a11.64,11.64,0,0,1-3,1l-.14,1.92A.73.73,0,0,1,411.27,182.49Zm-7.87-5.21a.36.36,0,0,1,.25.06,10.55,10.55,0,0,0,3.09,1.55.36.36,0,0,1,.24.36l-.16,2.19a10.82,10.82,0,0,0,2.18.38,13.19,13.19,0,0,0,2.18,0l.2-2.23a.35.35,0,0,1,.29-.32,10.32,10.32,0,0,0,3.27-1.08.35.35,0,0,1,.43.09l1.43,1.66a12.21,12.21,0,0,0,3.34-2.84l-1.43-1.71a.33.33,0,0,1,0-.43,10.88,10.88,0,0,0,1.55-3.08.36.36,0,0,1,.36-.24l2.18.16s0,0,0,0a12.29,12.29,0,0,0,.34-2.16,13.21,13.21,0,0,0,0-2.18l-2.23-.19a.37.37,0,0,1-.32-.3,10.57,10.57,0,0,0-1.08-3.27.35.35,0,0,1,.08-.43l1.66-1.43a12.35,12.35,0,0,0-2.83-3.34l-1.71,1.44a.35.35,0,0,1-.43,0,10.72,10.72,0,0,0-3.08-1.54A.35.35,0,0,1,413,158l.16-2.19a10.06,10.06,0,0,0-2.18-.38,13.19,13.19,0,0,0-2.18,0l-.19,2.23a.37.37,0,0,1-.3.32,10.3,10.3,0,0,0-3.27,1.07.35.35,0,0,1-.43-.08l-1.43-1.66a12.35,12.35,0,0,0-3.34,2.83l1.43,1.71a.33.33,0,0,1,0,.43,11.07,11.07,0,0,0-1.55,3.09.36.36,0,0,1-.36.24l-2.18-.16a10.52,10.52,0,0,0-.39,2.18,13.35,13.35,0,0,0,0,2.19L399,170a.35.35,0,0,1,.32.29,10.66,10.66,0,0,0,1.08,3.27.35.35,0,0,1-.08.43l-1.66,1.44a12.35,12.35,0,0,0,2.83,3.34l1.71-1.44A.42.42,0,0,1,403.4,177.28Zm7.52-2a6.74,6.74,0,0,1-7-9.61,6.38,6.38,0,0,1,4-3.46,6.76,6.76,0,0,1,8.1,9.39,6.36,6.36,0,0,1-4,3.45h0A9,9,0,0,1,410.92,175.27Zm-1.81-12.6a7.37,7.37,0,0,0-1,.2,5.68,5.68,0,0,0-3.55,3.07,6.06,6.06,0,0,0,7.27,8.43h0a5.67,5.67,0,0,0,3.56-3.07,6.15,6.15,0,0,0-.87-6.61A6,6,0,0,0,409.11,162.67Z" style="fill:#e0e0e0"></path><path id="freepik--gear--inject-89" d="M388.59,56.6a7.3,7.3,0,0,0-4.6,4,7.74,7.74,0,0,0,7,11.12,8.55,8.55,0,0,0,2.3-.33,7.35,7.35,0,0,0,4.61-4,7.77,7.77,0,0,0-9.31-10.79ZM397,67a6.36,6.36,0,0,1-4,3.45A6.81,6.81,0,0,1,384.85,61,6.47,6.47,0,0,1,390,57.29a7.22,7.22,0,0,1,.92-.06,6.82,6.82,0,0,1,5.17,2.33A6.91,6.91,0,0,1,397,67Zm9.77-4.47a.92.92,0,0,0-.85-.83l-2.12-.15a13.29,13.29,0,0,0-1.08-3.28l1.61-1.39a.93.93,0,0,0,.18-1.17,15.83,15.83,0,0,0-3.42-4,.92.92,0,0,0-1.18,0l-1.61,1.39a12.61,12.61,0,0,0-3.09-1.55l.16-2.12a.91.91,0,0,0-.7-1,15.55,15.55,0,0,0-2.59-.4,15.38,15.38,0,0,0-2.63,0,.89.89,0,0,0-.82.84l-.16,2.12a12.78,12.78,0,0,0-3.28,1.09l-1.39-1.61a.92.92,0,0,0-1.17-.19,15.78,15.78,0,0,0-4,3.42.92.92,0,0,0,0,1.19l1.39,1.6a13.35,13.35,0,0,0-1.55,3.09l-2.12-.16a.93.93,0,0,0-1,.7,15.18,15.18,0,0,0-.41,2.59,16.64,16.64,0,0,0,0,2.64.91.91,0,0,0,.84.82l2.12.16a13.1,13.1,0,0,0,1.09,3.27l-1.61,1.39a.92.92,0,0,0-.19,1.17,16.06,16.06,0,0,0,3.42,4,.92.92,0,0,0,1.19,0l1.6-1.38a13.32,13.32,0,0,0,3.09,1.54l-.15,2.13a.9.9,0,0,0,.69,1,15.71,15.71,0,0,0,2.59.4c.41,0,.81,0,1.21,0s1,0,1.43-.07h0a.94.94,0,0,0,.8-.85l.15-2.12a12.76,12.76,0,0,0,3.28-1.08l1.39,1.61a.91.91,0,0,0,1.17.18,15.61,15.61,0,0,0,4-3.42.92.92,0,0,0,0-1.19l-1.39-1.6a13.32,13.32,0,0,0,1.56-3.08l2.11.15a.9.9,0,0,0,1-.7,16.6,16.6,0,0,0,.41-2.59A17.72,17.72,0,0,0,406.8,62.52Zm-.93,2.56a15.47,15.47,0,0,1-.38,2.41L403,67.31a.46.46,0,0,0-.49.33,12.27,12.27,0,0,1-1.76,3.48.47.47,0,0,0,0,.59l1.59,1.89a13.83,13.83,0,0,1-3.68,3.12l-1.59-1.83a.46.46,0,0,0-.58-.11,11.92,11.92,0,0,1-3.7,1.21.49.49,0,0,0-.4.44l-.21,2.47a14.91,14.91,0,0,1-2.41,0,11.54,11.54,0,0,1-2.4-.41l.18-2.43a.49.49,0,0,0-.33-.49,12,12,0,0,1-3.49-1.74.52.52,0,0,0-.34-.09.47.47,0,0,0-.25.11l-1.89,1.59a13.88,13.88,0,0,1-3.12-3.68L380,70.18a.46.46,0,0,0,.11-.58,12.11,12.11,0,0,1-1.22-3.7.49.49,0,0,0-.44-.4L376,65.29a14.92,14.92,0,0,1,0-2.41,11.9,11.9,0,0,1,.41-2.4l2.43.18h0a.48.48,0,0,0,.45-.33,12.17,12.17,0,0,1,1.75-3.49.48.48,0,0,0,0-.59l-1.6-1.89a14.2,14.2,0,0,1,3.68-3.12l1.59,1.84a.47.47,0,0,0,.58.11A11.93,11.93,0,0,1,389,52a.46.46,0,0,0,.4-.43l.22-2.47a14.77,14.77,0,0,1,2.4,0,12.12,12.12,0,0,1,2.4.41l-.18,2.43a.49.49,0,0,0,.34.49,12,12,0,0,1,3.48,1.75.47.47,0,0,0,.59,0l1.89-1.59a14.2,14.2,0,0,1,3.12,3.68l-1.84,1.59a.49.49,0,0,0-.11.58,12.22,12.22,0,0,1,1.23,3.7.46.46,0,0,0,.43.4l2.46.21A14.88,14.88,0,0,1,405.87,65.08Z" style="fill:#e0e0e0"></path><path id="freepik--gear--inject-89" d="M161,40.12a7.43,7.43,0,0,0-4.69,4,8,8,0,0,0,1.08,8.56,7.85,7.85,0,0,0,5.95,2.73,9.2,9.2,0,0,0,1-.06,8.42,8.42,0,0,0,1.29-.26,7.41,7.41,0,0,0,4.68-4,7.86,7.86,0,0,0-9.35-11Zm8.47,10.57a6.42,6.42,0,0,1-4.06,3.46,6.89,6.89,0,0,1-8.22-9.63,6.44,6.44,0,0,1,4.06-3.47,7.68,7.68,0,0,1,1.14-.23,7.25,7.25,0,0,1,.93,0,6.9,6.9,0,0,1,5.22,2.39A7,7,0,0,1,169.48,50.69Zm9.91-4.47a.91.91,0,0,0-.85-.84l-2.14-.17a13.37,13.37,0,0,0-1.08-3.33L177,40.49a.94.94,0,0,0,.2-1.18,15.89,15.89,0,0,0-3.45-4,.92.92,0,0,0-1.19,0l-1.64,1.4a12.69,12.69,0,0,0-3.11-1.59l.17-2.15a.93.93,0,0,0-.7-1,17.05,17.05,0,0,0-2.62-.43,15.74,15.74,0,0,0-2.66,0,.9.9,0,0,0-.84.85L161,34.55a12.7,12.7,0,0,0-3.33,1.07L156.23,34a.92.92,0,0,0-1.18-.2,16,16,0,0,0-4,3.44.94.94,0,0,0,0,1.2l1.4,1.63a13.34,13.34,0,0,0-1.6,3.12L148.68,43a.91.91,0,0,0-1,.69,15.56,15.56,0,0,0-.43,2.62,15.87,15.87,0,0,0,0,2.67.93.93,0,0,0,.85.84l2.14.17a13.3,13.3,0,0,0,1.08,3.32l-1.64,1.4a.92.92,0,0,0-.19,1.18,15.83,15.83,0,0,0,3.44,4,.92.92,0,0,0,1.2,0l1.63-1.4a13.23,13.23,0,0,0,3.11,1.59l-.17,2.15a.93.93,0,0,0,.7,1,17.25,17.25,0,0,0,2.62.43c.41,0,.82,0,1.22,0s1,0,1.45-.06h0a.93.93,0,0,0,.8-.85l.17-2.15a13.22,13.22,0,0,0,3.33-1.07l1.39,1.63a.93.93,0,0,0,1.18.2,16.08,16.08,0,0,0,4-3.45.92.92,0,0,0,0-1.19l-1.39-1.64A13.23,13.23,0,0,0,175.86,52l2.14.17a.92.92,0,0,0,1-.69,17.16,17.16,0,0,0,.43-2.63A15.73,15.73,0,0,0,179.39,46.22Zm-.95,2.58a15.91,15.91,0,0,1-.4,2.44l-2.48-.2a.49.49,0,0,0-.5.34,12.33,12.33,0,0,1-1.79,3.5.47.47,0,0,0,0,.6l1.59,1.93a13.81,13.81,0,0,1-3.74,3.13l-1.59-1.86a.49.49,0,0,0-.59-.12,12.21,12.21,0,0,1-3.75,1.21.5.5,0,0,0-.41.44l-.23,2.5a15.18,15.18,0,0,1-2.43,0,12.41,12.41,0,0,1-2.43-.42l.2-2.46a.5.5,0,0,0-.34-.5,12.25,12.25,0,0,1-3.51-1.79.54.54,0,0,0-.35-.09.49.49,0,0,0-.25.12l-1.92,1.59a14,14,0,0,1-3.14-3.74l1.87-1.6a.49.49,0,0,0,.12-.59,12.16,12.16,0,0,1-1.22-3.74.47.47,0,0,0-.44-.41l-2.49-.23a15.29,15.29,0,0,1,0-2.44,12.19,12.19,0,0,1,.43-2.43l2.45.2h0a.48.48,0,0,0,.46-.34,12.17,12.17,0,0,1,1.8-3.51.48.48,0,0,0,0-.6l-1.6-1.92a14.23,14.23,0,0,1,3.75-3.14l1.59,1.87a.49.49,0,0,0,.59.12,11.94,11.94,0,0,1,3.75-1.21.48.48,0,0,0,.41-.44l.23-2.5a15.18,15.18,0,0,1,2.43,0,12.41,12.41,0,0,1,2.43.42l-.19,2.46a.49.49,0,0,0,.33.5,11.77,11.77,0,0,1,3.51,1.79.48.48,0,0,0,.6,0l1.93-1.59a14.18,14.18,0,0,1,3.13,3.74l-1.87,1.59a.49.49,0,0,0-.12.59,12.31,12.31,0,0,1,1.22,3.75.49.49,0,0,0,.44.41l2.49.23A16.42,16.42,0,0,1,178.44,48.8Z" style="fill:#e0e0e0"></path></g></g><g id="freepik--Puzzle--inject-89"><path id="freepik--puzzle--inject-89" d="M439.13,270.36a.6.6,0,0,1-.4-.15s-4.25-3.78-6.46-5.86c-1.9-1.8-3.37-3.45-2.17-5.45a3.91,3.91,0,0,1,2.41-1.45,6.64,6.64,0,0,0,3.29-1.86c1.91-2.13.34-5.17-1.19-6.7s-4.57-3.11-6.7-1.19a6.64,6.64,0,0,0-1.86,3.29,3.91,3.91,0,0,1-1.45,2.41c-2,1.2-3.65-.27-5.44-2.17-2.09-2.21-5.83-6.42-5.87-6.46a.63.63,0,0,1-.14-.51.58.58,0,0,1,.31-.43s2.26-1.21,6.68-4.23c5.38-3.66,4.26-5.53,3.44-6.89-.3-.5-.83-.68-1.75-.94A7,7,0,0,1,418.5,230c-1.54-1.54-1.92-4.48.88-7.28a6.38,6.38,0,0,1,4-2.06,4.19,4.19,0,0,1,3.23,1.19,6.91,6.91,0,0,1,1.74,3.32c.26.92.43,1.46.92,1.75,1.38.82,3.25,1.94,6.91-3.44,3-4.42,4.21-6.65,4.22-6.67a.64.64,0,0,1,.43-.32.61.61,0,0,1,.52.15s4.25,3.77,6.46,5.86c1.89,1.79,3.36,3.44,2.16,5.45a3.88,3.88,0,0,1-2.4,1.44,6.79,6.79,0,0,0-3.29,1.86c-1.93,2.14-.65,4.87,1.19,6.7s4.56,3.12,6.69,1.19a6.74,6.74,0,0,0,1.87-3.29,3.88,3.88,0,0,1,1.44-2.4c2-1.21,3.66.27,5.45,2.16,2.09,2.21,5.82,6.42,5.86,6.46a.61.61,0,0,1,.15.52.64.64,0,0,1-.32.43s-2.25,1.21-6.67,4.22c-5.38,3.66-4.26,5.53-3.45,6.89.3.51.84.68,1.76.94a7,7,0,0,1,3.32,1.74c1.54,1.54,1.93,4.47-.87,7.27s-5.74,2.42-7.28.88a7,7,0,0,1-1.73-3.33c-.27-.92-.44-1.45-.93-1.75-1.37-.82-3.24-1.93-6.9,3.44-3,4.42-4.21,6.65-4.23,6.68a.58.58,0,0,1-.43.31Zm-8.9-24.76a7.78,7.78,0,0,1,5.24,2.42c2.3,2.3,3.46,5.92,1.24,8.39a7.86,7.86,0,0,1-3.83,2.21c-.82.26-1.46.46-1.73.91-.55.91-.39,1.7,2,3.93,1.71,1.61,4.64,4.23,5.86,5.33.56-1,1.79-3,3.91-6.12,4-5.84,6.5-5,8.54-3.81a3.74,3.74,0,0,1,1.48,2.48,5.84,5.84,0,0,0,1.43,2.79c1.12,1.13,3.34,1.33,5.54-.87s2-4.42.88-5.55a5.81,5.81,0,0,0-2.79-1.42,3.73,3.73,0,0,1-2.47-1.48c-1.23-2.05-2-4.56,3.8-8.54,3.12-2.13,5.14-3.35,6.11-3.91-1.09-1.23-3.71-4.16-5.33-5.87-2.22-2.35-3-2.5-3.93-2-.44.27-.65.91-.9,1.72a7.85,7.85,0,0,1-2.22,3.83c-2.28,2.06-5.57,1.57-8.38-1.23s-3.29-6.1-1.23-8.39a7.9,7.9,0,0,1,3.83-2.21c.81-.25,1.46-.46,1.72-.9.55-.92.4-1.71-1.95-3.93-1.71-1.62-4.64-4.24-5.87-5.33-.56,1-1.78,3-3.91,6.11-4,5.84-6.49,5-8.53,3.81a3.77,3.77,0,0,1-1.49-2.48,5.77,5.77,0,0,0-1.42-2.79,2.92,2.92,0,0,0-2.3-.82,5.21,5.21,0,0,0-3.25,1.7c-2.2,2.2-2,4.42-.87,5.54a5.84,5.84,0,0,0,2.79,1.43,3.72,3.72,0,0,1,2.47,1.47c1.22,2.05,2,4.56-3.8,8.55-3.13,2.12-5.15,3.35-6.12,3.91,1.1,1.22,3.72,4.15,5.33,5.86,2.23,2.35,3,2.51,3.93,2,.45-.27.65-.91.91-1.73a7.82,7.82,0,0,1,2.21-3.83A4.61,4.61,0,0,1,430.23,245.6Z" style="fill:#e0e0e0"></path></g><g id="freepik--Messages--inject-89"><path id="freepik--messages--inject-89" d="M67.28,242V220.18a6.11,6.11,0,0,0-6.1-6.1H27.57a6.11,6.11,0,0,0-6.1,6.1V242a6.1,6.1,0,0,0,6.1,6.1H35a6.84,6.84,0,0,1-4.27,4.33.53.53,0,0,0-.4.52.5.5,0,0,0,.43.48,15.81,15.81,0,0,0,2.43.2c4.22,0,7.81-1.85,10.71-5.53H61.18A6.1,6.1,0,0,0,67.28,242Zm-23.6,5.09a.5.5,0,0,0-.4.19c-2.81,3.66-6.3,5.45-10.48,5.32a8.92,8.92,0,0,0,3.42-4.87.49.49,0,0,0-.09-.44.51.51,0,0,0-.4-.2H27.57A5.08,5.08,0,0,1,22.49,242V220.18a5.08,5.08,0,0,1,5.08-5.08H61.18a5.09,5.09,0,0,1,5.09,5.08V242a5.09,5.09,0,0,1-5.09,5.09Zm35.06-16.68H70.07a.51.51,0,0,0,0,1h8.67a4,4,0,0,1,3.94,3.94v17.4a3.94,3.94,0,0,1-3.94,3.94h-6.5a.54.54,0,0,0-.4.2.52.52,0,0,0-.09.45,7.31,7.31,0,0,0,2.51,3.75,9.72,9.72,0,0,1-8-4.2.51.51,0,0,0-.4-.2H52A3.94,3.94,0,0,1,48,252.8v-2.18a.51.51,0,0,0-1,0v2.18a5,5,0,0,0,5,5H65.66a10.75,10.75,0,0,0,8.64,4.39,13.8,13.8,0,0,0,1.89-.14.51.51,0,0,0,0-1A5.4,5.4,0,0,1,73,257.76h5.79a5,5,0,0,0,5-5V235.4A5,5,0,0,0,78.74,230.44ZM44.38,228.7a3.43,3.43,0,1,0,3.42,3.42A3.43,3.43,0,0,0,44.38,228.7Zm0,5.83a2.41,2.41,0,1,1,2.4-2.41A2.41,2.41,0,0,1,44.38,234.53ZM55.2,228.7a3.43,3.43,0,1,0,3.43,3.42A3.42,3.42,0,0,0,55.2,228.7Zm0,5.83a2.41,2.41,0,1,1,2.41-2.41A2.41,2.41,0,0,1,55.2,234.53ZM33.55,228.7A3.43,3.43,0,1,0,37,232.12,3.43,3.43,0,0,0,33.55,228.7Zm0,5.83A2.41,2.41,0,1,1,36,232.12,2.41,2.41,0,0,1,33.55,234.53Z" style="fill:#e0e0e0"></path></g><g id="freepik--Orders--inject-89"><g id="freepik--orders--inject-89"><path d="M380.61,284.49a2.07,2.07,0,1,0,2.07-2.08A2.08,2.08,0,0,0,380.61,284.49Z" style="fill:#5373FF"></path><polygon points="417.26 304.02 417.92 303.45 401.33 284.05 382.68 284.05 382.68 284.93 400.93 284.93 417.26 304.02" style="fill:#5373FF"></polygon><ellipse cx="443.26" cy="324.3" rx="32.8" ry="33.04" style="fill:#fff"></ellipse><path d="M410,324.3a33.29,33.29,0,1,1,33.29,33.53A33.45,33.45,0,0,1,410,324.3Zm1,0a32.31,32.31,0,1,0,32.31-32.56A32.46,32.46,0,0,0,411,324.3Z" style="fill:#5373FF"></path><g id="freepik--Box--inject-89"><polygon id="freepik--Shadow--inject-89" points="440.68 320.38 415.81 334.75 446.53 352.54 471.4 338.13 440.68 320.38" style="fill:#e0e0e0"></polygon><g id="freepik--box--inject-89"><g id="freepik--box--inject-89"><g id="freepik--back-box--inject-89"><polygon points="421.88 335.21 441.42 323.9 466.27 338.25 446.73 349.54 421.88 335.21"></polygon><polygon points="441.42 319.5 441.42 297.2 421.42 308.75 440.79 319.94 441.42 319.5" style="fill:#37474f"></polygon><polygon points="441.42 297.2 441.42 319.5 447.42 322.97 466.73 311.79 441.42 297.2" style="fill:#263238"></polygon></g><g id="freepik--front-box--inject-89"><polygon points="421.42 308.75 421.42 334.95 446.72 349.54 446.72 323.37 421.42 308.75" style="fill:#37474f"></polygon><polygon points="446.72 323.37 446.72 349.54 466.73 337.99 466.73 311.79 446.72 323.37" style="fill:#263238"></polygon><polygon points="446.73 323.37 447.18 348.71 463.94 339.6 446.72 349.54 446.73 323.37" style="fill:#fff;opacity:0.4"></polygon></g><path d="M449.48,342.54a.46.46,0,0,1-.23-.06.73.73,0,0,1-.3-.66v-1.93h0v-.14l.1,0,1.51-.89V341a1.76,1.76,0,0,1-.74,1.41A.66.66,0,0,1,449.48,342.54Zm-.29-2.5v1.78a.52.52,0,0,0,.18.45.35.35,0,0,0,.33,0,1.55,1.55,0,0,0,.62-1.2v-.16h-.56l-.11-.75Zm.78.59h.35V339.3l-.9.53.44.08Z" style="fill:#fff"></path><path d="M449.76,344.08a.12.12,0,0,1-.12-.13v-1.62a.12.12,0,0,1,.12-.12.13.13,0,0,1,.12.12V344A.13.13,0,0,1,449.76,344.08Z" style="fill:#fff"></path><path d="M449.05,344.48a.11.11,0,0,1-.1-.06.11.11,0,0,1,0-.16l1.41-.82a.13.13,0,0,1,.17.05.12.12,0,0,1-.05.16l-1.41.82Z" style="fill:#fff"></path><path d="M454.07,341.69a.28.28,0,0,1-.13,0,.31.31,0,0,1-.15-.29V341a.13.13,0,0,1,.12-.12.12.12,0,0,1,.12.12v.34a.1.1,0,0,0,0,.08l.08,0a.76.76,0,0,0,.22-.55v-2.15a.13.13,0,0,1,.12-.13.12.12,0,0,1,.12.13v2.15a.93.93,0,0,1-.34.76A.49.49,0,0,1,454.07,341.69Z" style="fill:#fff"></path><path d="M452.79,339.81v-.21a3.46,3.46,0,0,1,1.55-2.69,1.16,1.16,0,0,1,1.18-.1,1.15,1.15,0,0,1,.49,1.07V338Zm2.28-2.87a1.31,1.31,0,0,0-.61.18,3.23,3.23,0,0,0-1.41,2.26l2.72-1.57a.9.9,0,0,0-.37-.79A.62.62,0,0,0,455.07,336.94Z" style="fill:#fff"></path><path d="M458.42,339.21a.12.12,0,0,1-.12-.12V335a.13.13,0,0,1,.12-.12.12.12,0,0,1,.12.12v4.13A.12.12,0,0,1,458.42,339.21Z" style="fill:#fff"></path><path d="M458.07,335.9H458a.11.11,0,0,1-.06-.16l.43-1,.48.55a.12.12,0,0,1,0,.17.12.12,0,0,1-.17,0l-.23-.26-.28.64A.12.12,0,0,1,458.07,335.9Z" style="fill:#fff"></path><path d="M459.54,338.57a.12.12,0,0,1-.12-.12v-4.13a.13.13,0,0,1,.12-.12.12.12,0,0,1,.12.12v4.13A.12.12,0,0,1,459.54,338.57Z" style="fill:#fff"></path><path d="M459.19,335.26h-.05a.11.11,0,0,1-.06-.15l.43-1,.48.55a.14.14,0,0,1,0,.18.12.12,0,0,1-.17,0l-.23-.26-.28.64A.11.11,0,0,1,459.19,335.26Z" style="fill:#fff"></path></g><polygon points="441.42 297.2 421.42 308.75 446.73 323.37 466.73 311.79 441.42 297.2" style="fill:#455a64"></polygon><polygon points="421.42 308.75 446.63 322.51 466.73 311.79 446.73 323.37 421.42 308.75" style="fill:#fff;opacity:0.1"></polygon><polygon points="430.31 303.62 455.63 318.21 459.19 316.16 433.87 301.56 430.31 303.62" style="fill:#5373FF"></polygon><polygon points="459.19 316.16 459.19 320.68 458.76 320.43 458.31 321.2 457.87 320.94 457.42 321.72 456.97 321.45 456.52 322.23 456.08 321.97 455.63 322.74 455.63 318.21 459.19 316.16" style="fill:#5373FF"></polygon><polygon points="459.19 316.16 459.19 320.68 458.76 320.43 458.31 321.2 457.87 320.94 457.42 321.72 456.97 321.45 456.52 322.23 456.08 321.97 455.63 322.74 455.63 318.21 459.19 316.16" style="opacity:0.25"></polygon><path d="M425.52,329.07l7.32,4.23a.73.73,0,0,1,.33.57V339c0,.42-.3.59-.66.38l-7.32-4.23a.74.74,0,0,1-.33-.57v-5.09C424.86,329,425.16,328.86,425.52,329.07Z" style="fill:#fafafa"></path><polygon points="425.34 329.86 425.58 330 425.58 334.5 425.34 334.35 425.34 329.86" style="fill:#455a64"></polygon><polygon points="426.35 330.44 426.78 330.7 426.78 335.19 426.35 334.94 426.35 330.44" style="fill:#455a64"></polygon><polygon points="427.36 331.03 427.61 331.17 427.61 335.67 427.36 335.52 427.36 331.03" style="fill:#455a64"></polygon><polygon points="428.13 331.46 428.63 331.76 428.63 336.25 428.13 335.95 428.13 331.46" style="fill:#455a64"></polygon><polygon points="429.39 332.2 429.64 332.34 429.64 336.83 429.39 336.69 429.39 332.2" style="fill:#455a64"></polygon><polygon points="430.12 332.61 430.65 332.93 430.65 337.42 430.12 337.1 430.12 332.61" style="fill:#455a64"></polygon><polygon points="431.42 333.37 431.67 333.51 431.67 338 431.42 337.86 431.42 333.37" style="fill:#455a64"></polygon><polygon points="432 333.7 432.12 333.77 432.12 338.26 432 338.19 432 333.7" style="fill:#455a64"></polygon><polygon points="430.96 333.13 431.08 333.2 431.08 337.69 430.96 337.62 430.96 333.13" style="fill:#455a64"></polygon><polygon points="428.91 331.93 429.04 332 429.04 336.49 428.91 336.42 428.91 331.93" style="fill:#455a64"></polygon><polygon points="427.8 331.29 427.92 331.36 427.92 335.85 427.8 335.78 427.8 331.29" style="fill:#455a64"></polygon><polygon points="426.99 330.84 427.12 330.92 427.12 335.41 426.99 335.33 426.99 330.84" style="fill:#455a64"></polygon><polygon points="425.9 330.18 426.03 330.25 426.03 334.75 425.9 334.67 425.9 330.18" style="fill:#455a64"></polygon><polygon points="432.43 333.95 432.68 334.1 432.68 338.59 432.43 338.45 432.43 333.95" style="fill:#455a64"></polygon></g></g><path d="M419.5,371.37a4.35,4.35,0,0,1,.26-1.26,2.85,2.85,0,0,1,1.73-1.73,4.24,4.24,0,0,1,1.54-.26,4.36,4.36,0,0,1,1.52.25,2.85,2.85,0,0,1,1.08.7,2.94,2.94,0,0,1,.66,1,4,4,0,0,1,.27,1.27c0,.15,0,.32,0,.51V373c0,.18,0,.35,0,.5a4.41,4.41,0,0,1-.26,1.27,2.85,2.85,0,0,1-1.74,1.72,4.84,4.84,0,0,1-3.07,0,3.13,3.13,0,0,1-1.08-.69,3.06,3.06,0,0,1-.65-1,4.41,4.41,0,0,1-.26-1.27c0-.15,0-.32,0-.5v-1.14C419.49,371.69,419.49,371.52,419.5,371.37Zm5.44.06a1.9,1.9,0,0,0-.56-1.34,2.17,2.17,0,0,0-2.7,0,1.9,1.9,0,0,0-.56,1.34c0,.31,0,.64,0,1s0,.71,0,1a1.84,1.84,0,0,0,.56,1.33,2.17,2.17,0,0,0,2.7,0,1.84,1.84,0,0,0,.56-1.33c0-.3,0-.64,0-1S425,371.74,424.94,371.43Z" style="fill:#455a64"></path><path d="M431.68,368.24a3.29,3.29,0,0,1,2.28.7,2.45,2.45,0,0,1,.78,1.93,2.65,2.65,0,0,1-.4,1.49,2.39,2.39,0,0,1-1.18.92l1.65,3a.27.27,0,0,1,0,.14.25.25,0,0,1-.08.18.22.22,0,0,1-.18.08h-1a.53.53,0,0,1-.36-.11,1.17,1.17,0,0,1-.16-.21l-1.57-2.8h-1.6v2.8a.35.35,0,0,1-.09.23.33.33,0,0,1-.23.09h-1a.32.32,0,0,1-.33-.32v-7.76a.28.28,0,0,1,.1-.22.29.29,0,0,1,.23-.1Zm-1.8,3.78h1.74a2.12,2.12,0,0,0,1.09-.24,1,1,0,0,0,.41-.91.92.92,0,0,0-.41-.9,2.24,2.24,0,0,0-1.09-.23h-1.74Z" style="fill:#455a64"></path><path d="M439.71,368.24a4.71,4.71,0,0,1,1.54.23,2.89,2.89,0,0,1,1.77,1.71,4.83,4.83,0,0,1,.28,1.37,17.61,17.61,0,0,1,0,1.78,4.83,4.83,0,0,1-.28,1.37,3.05,3.05,0,0,1-.67,1,3,3,0,0,1-1.07.67,4.57,4.57,0,0,1-1.51.23h-3a.32.32,0,0,1-.33-.32v-7.76a.28.28,0,0,1,.1-.22.29.29,0,0,1,.23-.1Zm2,3.31a2.72,2.72,0,0,0-.15-.71,1.85,1.85,0,0,0-.37-.58,1.75,1.75,0,0,0-.62-.38,2.64,2.64,0,0,0-.89-.14H438v5.4h1.67a2.4,2.4,0,0,0,.85-.14,1.65,1.65,0,0,0,.6-.37,1.75,1.75,0,0,0,.37-.58,2.71,2.71,0,0,0,.15-.72A17.61,17.61,0,0,0,441.68,371.55Z" style="fill:#455a64"></path><path d="M450.58,375.14a.29.29,0,0,1,.23.1.33.33,0,0,1,.1.23v.85a.37.37,0,0,1-.1.23.32.32,0,0,1-.23.09h-5.27a.31.31,0,0,1-.22-.09.32.32,0,0,1-.1-.23v-7.76a.34.34,0,0,1,.32-.32h5.18a.34.34,0,0,1,.32.32v.86a.27.27,0,0,1-.1.22.28.28,0,0,1-.22.1h-3.88v1.91h3.61a.32.32,0,0,1,.23.09.34.34,0,0,1,.1.23v.85a.33.33,0,0,1-.1.23.29.29,0,0,1-.23.1h-3.61v2Z" style="fill:#455a64"></path><path d="M455.93,368.24a3.29,3.29,0,0,1,2.28.7,2.45,2.45,0,0,1,.78,1.93,2.65,2.65,0,0,1-.4,1.49,2.39,2.39,0,0,1-1.18.92l1.66,3a.39.39,0,0,1,0,.14.27.27,0,0,1-.26.26h-1a.53.53,0,0,1-.36-.11,1.17,1.17,0,0,1-.16-.21l-1.57-2.8h-1.6v2.8a.35.35,0,0,1-.09.23.33.33,0,0,1-.23.09h-1a.32.32,0,0,1-.23-.09.37.37,0,0,1-.1-.23v-7.76a.32.32,0,0,1,.1-.22.29.29,0,0,1,.23-.1Zm-1.8,3.78h1.74a2.19,2.19,0,0,0,1.1-.24,1,1,0,0,0,.4-.91.93.93,0,0,0-.4-.9,2.31,2.31,0,0,0-1.1-.23h-1.74Z" style="fill:#455a64"></path><path d="M463.55,368.12a4.11,4.11,0,0,1,1.42.22,3.28,3.28,0,0,1,1,.54,2.29,2.29,0,0,1,.62.71,1.75,1.75,0,0,1,.23.74.24.24,0,0,1-.09.23.33.33,0,0,1-.23.09h-.84a.46.46,0,0,1-.31-.08.63.63,0,0,1-.18-.21,1.73,1.73,0,0,0-.55-.52,2.12,2.12,0,0,0-1.09-.22,2.27,2.27,0,0,0-.59.07,1.67,1.67,0,0,0-.49.19,1,1,0,0,0-.33.3.73.73,0,0,0-.12.41.83.83,0,0,0,.11.45.88.88,0,0,0,.39.3,3.24,3.24,0,0,0,.71.24l1.1.25a7.56,7.56,0,0,1,1.25.36,3.14,3.14,0,0,1,.85.51,1.82,1.82,0,0,1,.49.68,2.33,2.33,0,0,1-.08,1.88,2.43,2.43,0,0,1-.68.79,3.56,3.56,0,0,1-1.09.52,5.11,5.11,0,0,1-1.46.19,4.93,4.93,0,0,1-1.28-.16,3.71,3.71,0,0,1-1.09-.47,2.56,2.56,0,0,1-.76-.74,1.9,1.9,0,0,1-.32-1,.25.25,0,0,1,.09-.23.33.33,0,0,1,.23-.09h.84a.53.53,0,0,1,.31.07.44.44,0,0,1,.18.22c.06.1.13.2.21.31a1.24,1.24,0,0,0,.32.27,2,2,0,0,0,.51.2,3.28,3.28,0,0,0,.76.08,5.24,5.24,0,0,0,.7-.05,2.41,2.41,0,0,0,.59-.18,1.47,1.47,0,0,0,.41-.31.73.73,0,0,0,.15-.47.56.56,0,0,0-.17-.43,1.34,1.34,0,0,0-.51-.29,8.64,8.64,0,0,0-.84-.23l-1.17-.27a6.83,6.83,0,0,1-1-.34,2.72,2.72,0,0,1-.74-.49,1.82,1.82,0,0,1-.44-.68,2.84,2.84,0,0,1-.14-.93,2.07,2.07,0,0,1,.24-1,2.26,2.26,0,0,1,.66-.78,3,3,0,0,1,1-.51A3.94,3.94,0,0,1,463.55,368.12Z" style="fill:#455a64"></path></g></g><g id="freepik--Support--inject-89"><g id="freepik--support--inject-89"><path d="M119.29,284.49a2.07,2.07,0,1,1-2.06-2.08A2.07,2.07,0,0,1,119.29,284.49Z" style="fill:#5373FF"></path><polygon points="82.64 304.02 81.98 303.45 98.58 284.05 117.23 284.05 117.23 284.93 98.98 284.93 82.64 304.02" style="fill:#5373FF"></polygon><ellipse cx="56.65" cy="324.3" rx="32.8" ry="33.04" style="fill:#fff"></ellipse><path d="M56.65,357.83A33.53,33.53,0,1,1,89.94,324.3,33.45,33.45,0,0,1,56.65,357.83Zm0-66.09A32.56,32.56,0,1,0,89,324.3,32.48,32.48,0,0,0,56.65,291.74Z" style="fill:#5373FF"></path><path d="M26.82,341.68l35.35-20.41-.57-5.09c-.37-3.23-1.66-5.48-3.5-6.54l-4.92-2.84c-1.84-1.06-4.23-.95-6.82.55L32.8,315.18c-5.19,3-9.59,10.63-10.32,17.9l-.58,5.76Z" style="fill:#263238"></path><path d="M61.6,316.18c-.37-3.23-1.66-5.48-3.5-6.54s-4.23-.95-6.82.55L37.72,318c-5.19,3-9.59,10.63-10.32,17.9l-.58,5.76,35.35-20.41Z" style="fill:#455a64"></path><path d="M52.15,288c1.74,1,2.82,3.16,2.82,6.22,0,6.14-4.31,13.6-9.62,16.67-2.66,1.53-5.07,1.68-6.81.67l-4.83-2.79c-1.74-1-2.81-3.16-2.81-6.23,0-6.13,4.3-13.59,9.62-16.66,2.65-1.53,5.06-1.68,6.8-.67Z" style="fill:#263238"></path><path d="M45.35,310.87c-2.66,1.53-5.07,1.68-6.81.67s-2.81-3.16-2.81-6.23c0-6.13,4.3-13.59,9.62-16.66,2.65-1.53,5.06-1.68,6.8-.67S55,291.14,55,294.2C55,300.34,50.66,307.8,45.35,310.87Z" style="fill:#455a64"></path><path d="M50.66,352.89l32.25-18.62-.53-4.64c-.33-2.94-1.51-5-3.19-6l-4.49-2.58c-1.67-1-3.86-.87-6.22.5l-12.36,7.14c-4.74,2.73-8.75,9.69-9.42,16.33l-.52,5.25Z" style="fill:#5373FF"></path><path d="M82.38,329.63c-.33-2.94-1.51-5-3.19-6s-3.86-.86-6.22.51L60.6,331.31c-4.73,2.73-8.75,9.69-9.41,16.33l-.53,5.25,32.25-18.62Z" style="fill:#5373FF"></path><g style="opacity:0.5"><path d="M82.38,329.63c-.33-2.94-1.51-5-3.19-6s-3.86-.86-6.22.51L60.6,331.31c-4.73,2.73-8.75,9.69-9.41,16.33l-.53,5.25,32.25-18.62Z" style="fill:#fff"></path></g><path d="M73.76,303.91c1.59.92,2.57,2.88,2.57,5.68,0,5.59-3.93,12.4-8.77,15.2-2.42,1.4-4.62,1.53-6.21.61L57,322.86c-1.59-.92-2.57-2.88-2.57-5.68,0-5.6,3.93-12.4,8.77-15.2,2.43-1.4,4.62-1.53,6.21-.61Z" style="fill:#5373FF"></path><path d="M67.56,324.79c-2.42,1.4-4.62,1.53-6.21.61s-2.57-2.88-2.57-5.68c0-5.59,3.93-12.4,8.78-15.2,2.42-1.4,4.61-1.53,6.2-.61s2.57,2.88,2.57,5.68C76.33,315.18,72.4,322,67.56,324.79Z" style="fill:#5373FF"></path><g style="opacity:0.5"><path d="M67.56,324.79c-2.42,1.4-4.62,1.53-6.21.61s-2.57-2.88-2.57-5.68c0-5.59,3.93-12.4,8.78-15.2,2.42-1.4,4.61-1.53,6.2-.61s2.57,2.88,2.57,5.68C76.33,315.18,72.4,322,67.56,324.79Z" style="fill:#fff"></path></g><path d="M32.37,368.12a4.15,4.15,0,0,1,1.42.22,3.52,3.52,0,0,1,1,.54,2.25,2.25,0,0,1,.61.71,1.94,1.94,0,0,1,.24.74.24.24,0,0,1-.09.23.36.36,0,0,1-.24.09h-.84a.45.45,0,0,1-.3-.08.78.78,0,0,1-.19-.21,1.69,1.69,0,0,0-.54-.52,2.14,2.14,0,0,0-1.09-.22,2.35,2.35,0,0,0-.6.07,1.79,1.79,0,0,0-.49.19,1,1,0,0,0-.33.3.73.73,0,0,0-.12.41A.75.75,0,0,0,31,371a.8.8,0,0,0,.38.3,3.35,3.35,0,0,0,.72.24l1.1.25a7.43,7.43,0,0,1,1.24.36,3,3,0,0,1,.85.51,1.72,1.72,0,0,1,.49.68,2.27,2.27,0,0,1-.07,1.88,2.35,2.35,0,0,1-.69.79,3.45,3.45,0,0,1-1.09.52,5.46,5.46,0,0,1-2.74,0,3.76,3.76,0,0,1-1.08-.47,2.45,2.45,0,0,1-.76-.74,1.91,1.91,0,0,1-.33-1,.32.32,0,0,1,.09-.23.36.36,0,0,1,.24-.09h.84a.55.55,0,0,1,.31.07.58.58,0,0,1,.18.22,2.29,2.29,0,0,0,.2.31,1.14,1.14,0,0,0,.33.27,1.75,1.75,0,0,0,.51.2,3.22,3.22,0,0,0,.76.08,5.36,5.36,0,0,0,.7-.05,2.2,2.2,0,0,0,.58-.18,1.34,1.34,0,0,0,.41-.31.74.74,0,0,0,.16-.47.6.6,0,0,0-.17-.43,1.34,1.34,0,0,0-.51-.29c-.23-.08-.51-.15-.85-.23L31.59,373a6.83,6.83,0,0,1-1.05-.34,2.58,2.58,0,0,1-.74-.49,1.7,1.7,0,0,1-.44-.68,2.59,2.59,0,0,1-.15-.93,2.07,2.07,0,0,1,.24-1,2.26,2.26,0,0,1,.66-.78,3.15,3.15,0,0,1,1-.51A4,4,0,0,1,32.37,368.12Z" style="fill:#455a64"></path><path d="M43.88,368.24a.34.34,0,0,1,.32.32v4.92a3.82,3.82,0,0,1-.22,1.35,2.8,2.8,0,0,1-.64,1,3,3,0,0,1-1.08.67,4.63,4.63,0,0,1-1.5.23,4.57,4.57,0,0,1-1.51-.23,2.83,2.83,0,0,1-1.07-.67,2.7,2.7,0,0,1-.65-1,4.07,4.07,0,0,1-.21-1.35v-4.92a.32.32,0,0,1,.1-.22.29.29,0,0,1,.23-.1h1a.3.3,0,0,1,.23.1.31.31,0,0,1,.09.22v4.87a2.29,2.29,0,0,0,.14.83,1.38,1.38,0,0,0,.37.58,1.59,1.59,0,0,0,.57.32,2.5,2.5,0,0,0,.74.1,2.43,2.43,0,0,0,.73-.1,1.6,1.6,0,0,0,.59-.32,1.49,1.49,0,0,0,.37-.58,2.09,2.09,0,0,0,.14-.83v-4.87a.28.28,0,0,1,.1-.22.29.29,0,0,1,.23-.1Z" style="fill:#455a64"></path><path d="M49.67,368.24a3.37,3.37,0,0,1,2.26.69,2.48,2.48,0,0,1,.8,2,2.52,2.52,0,0,1-.8,2,3.32,3.32,0,0,1-2.26.7H47.75v2.68a.35.35,0,0,1-.09.23.33.33,0,0,1-.23.09h-1a.32.32,0,0,1-.33-.32v-7.76a.28.28,0,0,1,.1-.22.29.29,0,0,1,.23-.1Zm-1.92,3.9h1.86a1.93,1.93,0,0,0,1.09-.27,1,1,0,0,0,.41-.94,1,1,0,0,0-.41-.93,2,2,0,0,0-1.09-.26H47.75Z" style="fill:#455a64"></path><path d="M57.7,368.24a3.37,3.37,0,0,1,2.26.69,2.48,2.48,0,0,1,.8,2,2.52,2.52,0,0,1-.8,2,3.32,3.32,0,0,1-2.26.7H55.78v2.68a.32.32,0,0,1-.1.23.29.29,0,0,1-.22.09h-1a.31.31,0,0,1-.22-.09.32.32,0,0,1-.1-.23v-7.76a.34.34,0,0,1,.32-.32Zm-1.92,3.9h1.86a1.93,1.93,0,0,0,1.09-.27,1,1,0,0,0,.41-.94,1,1,0,0,0-.41-.93,2,2,0,0,0-1.09-.26H55.78Z" style="fill:#455a64"></path><path d="M61.9,371.37a4.35,4.35,0,0,1,.26-1.26,2.85,2.85,0,0,1,1.73-1.73,4.24,4.24,0,0,1,1.54-.26,4.36,4.36,0,0,1,1.52.25,2.85,2.85,0,0,1,1.08.7,2.94,2.94,0,0,1,.66,1,4,4,0,0,1,.27,1.27c0,.15,0,.32,0,.51s0,.37,0,.57,0,.38,0,.57,0,.35,0,.5a4.41,4.41,0,0,1-.26,1.27,3.06,3.06,0,0,1-.65,1,3.18,3.18,0,0,1-1.09.69,4.84,4.84,0,0,1-3.07,0,3.13,3.13,0,0,1-1.08-.69,3.06,3.06,0,0,1-.65-1,4.41,4.41,0,0,1-.26-1.27c0-.15,0-.32,0-.5v-1.14C61.89,371.69,61.89,371.52,61.9,371.37Zm5.44.06a1.9,1.9,0,0,0-.56-1.34,2.17,2.17,0,0,0-2.7,0,1.9,1.9,0,0,0-.56,1.34c0,.31,0,.64,0,1s0,.71,0,1a1.84,1.84,0,0,0,.56,1.33,2.17,2.17,0,0,0,2.7,0,1.84,1.84,0,0,0,.56-1.33c0-.3,0-.64,0-1S67.35,371.74,67.34,371.43Z" style="fill:#455a64"></path><path d="M74.08,368.24a3.29,3.29,0,0,1,2.28.7,2.45,2.45,0,0,1,.78,1.93,2.65,2.65,0,0,1-.4,1.49,2.39,2.39,0,0,1-1.18.92l1.65,3a.27.27,0,0,1,0,.14.25.25,0,0,1-.08.18.22.22,0,0,1-.19.08H76a.53.53,0,0,1-.36-.11.83.83,0,0,1-.16-.21l-1.57-2.8h-1.6v2.8a.32.32,0,0,1-.1.23.29.29,0,0,1-.22.09H71a.31.31,0,0,1-.22-.09.32.32,0,0,1-.1-.23v-7.76a.34.34,0,0,1,.32-.32ZM72.28,372H74a2.12,2.12,0,0,0,1.09-.24,1,1,0,0,0,.41-.91.92.92,0,0,0-.41-.9,2.24,2.24,0,0,0-1.09-.23H72.28Z" style="fill:#455a64"></path><path d="M84.33,368.24a.3.3,0,0,1,.23.1.31.31,0,0,1,.09.22v.86a.29.29,0,0,1-.09.22.3.3,0,0,1-.23.1H82.17v6.58a.32.32,0,0,1-.1.23.31.31,0,0,1-.22.09h-1a.33.33,0,0,1-.23-.09.35.35,0,0,1-.09-.23v-6.58H78.39a.29.29,0,0,1-.23-.1.3.3,0,0,1-.1-.22v-.86a.32.32,0,0,1,.1-.22.29.29,0,0,1,.23-.1Z" style="fill:#455a64"></path></g></g><g id="freepik--Sales--inject-89"><g id="freepik--sales--inject-89"><polygon points="396.34 215.94 395.81 215.24 443.16 179.09 443.16 151.26 444.03 151.26 444.03 179.52 443.86 179.66 396.34 215.94" style="fill:#5373FF"></polygon><path d="M394,215.59a2.07,2.07,0,1,0,2.06-2.08A2.07,2.07,0,0,0,394,215.59Z" style="fill:#5373FF"></path><ellipse cx="443.6" cy="118.22" rx="32.8" ry="33.04" style="fill:#fff"></ellipse><path d="M410.31,118.22a33.29,33.29,0,1,1,33.29,33.53A33.45,33.45,0,0,1,410.31,118.22Zm1,0A32.32,32.32,0,1,0,443.6,85.67,32.48,32.48,0,0,0,411.28,118.22Z" style="fill:#5373FF"></path><path d="M458,129.87c-.21-5.77-3.22-9.8-6.75-13.14l1.7.44,4.9-2.83a22.52,22.52,0,0,0-.88-3.14,21.54,21.54,0,0,0-2.55-4.86,26.33,26.33,0,0,0-6.28-6.24L447.9,95l-6.07-3.51-4.9,2.83,0,1.29v.28a5.78,5.78,0,0,0-1.2.55c-.14.08-.25.17-.37.25-.57.42-3.4,1.9-4.53,2.58a4,4,0,0,0-.37.25c-1.3,1-2,2.78-1.89,5.61h0a15.86,15.86,0,0,0,2.46,7.85l.38.57,0,.06.42.59a6,6,0,0,0,.38.5c.06.07.1.14.16.2a3.57,3.57,0,0,0,.3.38,31.22,31.22,0,0,0,2.72,2.89q.63.6,1.29,1.17l-2.24-.56-4.9,2.83a23.42,23.42,0,0,0,9.24,13.26L439,140l6.13,3.39,4.9-2.83-.06-1.59a3.56,3.56,0,0,0,1-.41l0,0c.74-.48,4-2.28,4.87-2.81l0,0C457.34,134.77,458.06,132.87,458,129.87Z" style="fill:#5373FF"></path><path d="M458,129.87c-.21-5.77-3.22-9.8-6.75-13.14l1.7.44,4.9-2.83a22.52,22.52,0,0,0-.88-3.14,21.54,21.54,0,0,0-2.55-4.86,26.33,26.33,0,0,0-6.28-6.24L447.9,95l-6.07-3.51-4.9,2.83,0,1.29v.28a5.78,5.78,0,0,0-1.2.55c-.14.08-.25.17-.37.25-.57.42-3.4,1.9-4.53,2.58a4,4,0,0,0-.37.25c-1.3,1-2,2.78-1.89,5.61h0a15.86,15.86,0,0,0,2.46,7.85l.38.57,0,.06.42.59a6,6,0,0,0,.38.5c.06.07.1.14.16.2a3.57,3.57,0,0,0,.3.38,31.22,31.22,0,0,0,2.72,2.89q.63.6,1.29,1.17l-2.24-.56-4.9,2.83a23.42,23.42,0,0,0,9.24,13.26L439,140l6.13,3.39,4.9-2.83-.06-1.59a3.56,3.56,0,0,0,1-.41l0,0c.74-.48,4-2.28,4.87-2.81l0,0C457.34,134.77,458.06,132.87,458,129.87Z" style="opacity:0.1"></path><path d="M431.11,99.16c1.25-.74,3.76-2.06,4.29-2.45l.38-.26a5.77,5.77,0,0,1,1.2-.54l.13,3.65A5.87,5.87,0,0,0,431.11,99.16Z" style="fill:#5373FF"></path><path d="M431.11,99.16c1.25-.74,3.76-2.06,4.29-2.45l.38-.26a5.77,5.77,0,0,1,1.2-.54l.13,3.65A5.87,5.87,0,0,0,431.11,99.16Z" style="fill:#fff;opacity:0.55"></path><path d="M450,139l.05,1.58-4.9,2.81-.18-5.06A8.31,8.31,0,0,0,450,139Z" style="opacity:0.2"></path><path d="M443,97.85l-6.06-3.51,4.9-2.83L447.91,95l.17,5.07a26,26,0,0,1,6.28,6.25,21.59,21.59,0,0,1,2.56,4.86,22.77,22.77,0,0,1,.88,3.13l-4.9,2.84A23.55,23.55,0,0,0,452,114a21.38,21.38,0,0,0-2.56-4.86,26.2,26.2,0,0,0-6.28-6.25Z" style="fill:#5373FF"></path><path d="M443,97.85l-6.06-3.51,4.9-2.83L447.91,95l.17,5.07a26,26,0,0,1,6.28,6.25,21.59,21.59,0,0,1,2.56,4.86,22.77,22.77,0,0,1,.88,3.13l-4.9,2.84A23.55,23.55,0,0,0,452,114a21.38,21.38,0,0,0-2.56-4.86,26.2,26.2,0,0,0-6.28-6.25Z" style="fill:#fff;opacity:0.55"></path><polygon points="441.84 120.64 436.94 123.47 429.61 121.64 434.51 118.81 441.84 120.64" style="fill:#5373FF"></polygon><polygon points="445.17 143.36 444.97 138.29 450.01 138.94 450.07 140.53 445.17 143.36" style="fill:#5373FF"></polygon><path d="M437,95.63l.14,3.93a5.86,5.86,0,0,0-6.23-.27,4,4,0,0,0-.37.25c-1.3,1-2,2.78-1.89,5.61h0a15.86,15.86,0,0,0,2.46,7.85l.38.57,0,.06.42.59a6,6,0,0,0,.38.5c.06.07.1.14.16.2a3.57,3.57,0,0,0,.3.38,31.22,31.22,0,0,0,2.72,2.89c.46.44.93.87,1.4,1.28.68.6,1.37,1.18,2,1.72.28.22.53.44.78.65a30.22,30.22,0,0,1,4.08,3.77,5.69,5.69,0,0,1,1.13,2,4.85,4.85,0,0,1,.19,1.14c.06,1.52-.82,2.29-3.37.89a9,9,0,0,1-4.74-6.16l-7.33-1.84a23.42,23.42,0,0,0,9.24,13.26L439,140l6.13,3.39-.2-5.07c2.56,1,4.63,1.11,6,.24l0,0c1.41-.91,2.13-2.81,2-5.81-.25-6.68-4.24-11-8.46-14.68-3.94-3.38-7.42-5.48-7.54-8.72-.07-2,1.24-2.19,3.25-1.08a10,10,0,0,1,4.87,7l7.73,2A21.23,21.23,0,0,0,452,114a20.76,20.76,0,0,0-2.55-4.86,26,26,0,0,0-6.28-6.24L443,97.85l-6.07-3.51Z" style="fill:#5373FF"></path><path d="M437,95.63l.14,3.93a5.86,5.86,0,0,0-6.23-.27,4,4,0,0,0-.37.25c-1.3,1-2,2.78-1.89,5.61h0a15.86,15.86,0,0,0,2.46,7.85l.38.57,0,.06.42.59a6,6,0,0,0,.38.5c.06.07.1.14.16.2a3.57,3.57,0,0,0,.3.38,31.22,31.22,0,0,0,2.72,2.89c.46.44.93.87,1.4,1.28.68.6,1.37,1.18,2,1.72.28.22.53.44.78.65a30.22,30.22,0,0,1,4.08,3.77,5.69,5.69,0,0,1,1.13,2,4.85,4.85,0,0,1,.19,1.14c.06,1.52-.82,2.29-3.37.89a9,9,0,0,1-4.74-6.16l-7.33-1.84a23.42,23.42,0,0,0,9.24,13.26L439,140l6.13,3.39-.2-5.07c2.56,1,4.63,1.11,6,.24l0,0c1.41-.91,2.13-2.81,2-5.81-.25-6.68-4.24-11-8.46-14.68-3.94-3.38-7.42-5.48-7.54-8.72-.07-2,1.24-2.19,3.25-1.08a10,10,0,0,1,4.87,7l7.73,2A21.23,21.23,0,0,0,452,114a20.76,20.76,0,0,0-2.55-4.86,26,26,0,0,0-6.28-6.24L443,97.85l-6.07-3.51Z" style="fill:#fff;opacity:0.35000000000000003"></path><path d="M453.05,132.7a16.72,16.72,0,0,0-2-7,23.31,23.31,0,0,0-4.49-5.69c-1.73-1.72-3.66-3.22-5.53-4.8a21.29,21.29,0,0,1-2.62-2.58,5.6,5.6,0,0,1-1.35-3.37,5.6,5.6,0,0,0,1.48,3.25A21,21,0,0,0,441.2,115c1.89,1.53,3.83,3,5.6,4.75a23.08,23.08,0,0,1,4.48,5.82,15.94,15.94,0,0,1,1.31,3.44A18,18,0,0,1,453.05,132.7Z" style="fill:#fff"></path><polygon points="443 97.85 447.9 95.02 448.09 100.1 443.18 102.93 443 97.85" style="fill:#5373FF"></polygon><polygon points="436.93 94.34 442.44 98.14 443.18 102.93 443 97.85 436.93 94.34" style="fill:#fafafa"></polygon><path d="M428.38,61.61a4.36,4.36,0,0,1,1.41.21,3.5,3.5,0,0,1,1,.54,2.43,2.43,0,0,1,.62.72,1.71,1.71,0,0,1,.23.73.26.26,0,0,1-.09.24.32.32,0,0,1-.23.09h-.84a.52.52,0,0,1-.31-.08.76.76,0,0,1-.18-.21,1.54,1.54,0,0,0-.55-.52,2.08,2.08,0,0,0-1.08-.22,2.91,2.91,0,0,0-.6.06,2,2,0,0,0-.49.19,1.1,1.1,0,0,0-.33.31.73.73,0,0,0-.12.41.88.88,0,0,0,.11.45,1.05,1.05,0,0,0,.39.3,4.24,4.24,0,0,0,.71.23l1.11.25a8.44,8.44,0,0,1,1.24.37,3,3,0,0,1,.85.5,2,2,0,0,1,.49.68,2.23,2.23,0,0,1,.16.88,2.14,2.14,0,0,1-.24,1,2.23,2.23,0,0,1-.68.79,3.35,3.35,0,0,1-1.09.52,5,5,0,0,1-1.45.2,5,5,0,0,1-1.29-.17,3.78,3.78,0,0,1-1.08-.46,2.72,2.72,0,0,1-.77-.74,1.93,1.93,0,0,1-.32-1,.26.26,0,0,1,.09-.24.35.35,0,0,1,.23-.09h.84a.58.58,0,0,1,.32.08.54.54,0,0,1,.18.21,1.49,1.49,0,0,0,.2.31,1.1,1.1,0,0,0,.32.28,2,2,0,0,0,.51.2,3.31,3.31,0,0,0,.77.08,3.85,3.85,0,0,0,.69-.06,2,2,0,0,0,.59-.18,1.3,1.3,0,0,0,.41-.31.71.71,0,0,0,.15-.46.61.61,0,0,0-.16-.44,1.52,1.52,0,0,0-.51-.28,6.69,6.69,0,0,0-.85-.23c-.34-.07-.72-.16-1.16-.28a5.89,5.89,0,0,1-1.05-.34,2.38,2.38,0,0,1-.75-.49,1.91,1.91,0,0,1-.44-.67,2.84,2.84,0,0,1-.14-.93,2.11,2.11,0,0,1,.24-1,2.46,2.46,0,0,1,.66-.78,3.48,3.48,0,0,1,1-.51A4.26,4.26,0,0,1,428.38,61.61Z" style="fill:#455a64"></path><path d="M437.22,61.72a.38.38,0,0,1,.29.11,1,1,0,0,1,.17.3l2.94,7.59s0,0,0,.08a.29.29,0,0,1-.1.23.33.33,0,0,1-.23.1h-.86a.46.46,0,0,1-.34-.11.72.72,0,0,1-.13-.19l-.51-1.34h-3.8l-.51,1.34A.72.72,0,0,1,434,70a.46.46,0,0,1-.34.11h-.86a.33.33,0,0,1-.23-.1.29.29,0,0,1-.1-.23s0-.06,0-.08l2.94-7.59a1,1,0,0,1,.17-.3.38.38,0,0,1,.29-.11Zm.66,5.27-1.32-3.42L435.24,67Z" style="fill:#455a64"></path><path d="M447.42,68.63a.31.31,0,0,1,.32.32v.85a.32.32,0,0,1-.09.23.34.34,0,0,1-.23.1h-5.26a.32.32,0,0,1-.22-.1.29.29,0,0,1-.1-.23V62.05a.29.29,0,0,1,.1-.23.32.32,0,0,1,.22-.1h1a.32.32,0,0,1,.22.1.29.29,0,0,1,.1.23v6.58Z" style="fill:#455a64"></path><path d="M454.61,68.63a.31.31,0,0,1,.32.32v.85a.32.32,0,0,1-.09.23.34.34,0,0,1-.23.1h-5.27a.34.34,0,0,1-.23-.1.33.33,0,0,1-.1-.23V62.05a.33.33,0,0,1,.1-.23.34.34,0,0,1,.23-.1h5.17a.34.34,0,0,1,.33.33v.85a.33.33,0,0,1-.1.23.32.32,0,0,1-.23.09h-3.87v1.91h3.61a.34.34,0,0,1,.23.1.32.32,0,0,1,.09.23v.85a.31.31,0,0,1-.32.32h-3.61v2Z" style="fill:#455a64"></path><path d="M459.42,61.61a4.38,4.38,0,0,1,1.42.21,3.78,3.78,0,0,1,1,.54,2.39,2.39,0,0,1,.61.72,1.89,1.89,0,0,1,.24.73.26.26,0,0,1-.09.24.36.36,0,0,1-.24.09h-.84a.51.51,0,0,1-.3-.08.78.78,0,0,1-.19-.21,1.59,1.59,0,0,0-.54-.52,2.14,2.14,0,0,0-1.09-.22,2.74,2.74,0,0,0-.59.06,2.09,2.09,0,0,0-.5.19,1.1,1.1,0,0,0-.33.31.73.73,0,0,0-.12.41.79.79,0,0,0,.12.45.94.94,0,0,0,.38.3,4.09,4.09,0,0,0,.72.23c.29.07.66.16,1.1.25a8.44,8.44,0,0,1,1.24.37,3,3,0,0,1,.85.5,2,2,0,0,1,.5.68,2.42,2.42,0,0,1,.16.88,2.14,2.14,0,0,1-.24,1,2.26,2.26,0,0,1-.69.79,3.25,3.25,0,0,1-1.09.52,5,5,0,0,1-1.45.2,4.83,4.83,0,0,1-1.28-.17,4,4,0,0,1-1.09-.46,2.56,2.56,0,0,1-.76-.74,2,2,0,0,1-.33-1,.32.32,0,0,1,.09-.24.36.36,0,0,1,.24-.09h.84a.5.5,0,0,1,.49.29,2,2,0,0,0,.2.31,1,1,0,0,0,.33.28,1.75,1.75,0,0,0,.51.2,3.22,3.22,0,0,0,.76.08,4,4,0,0,0,.7-.06,1.88,1.88,0,0,0,.58-.18,1.2,1.2,0,0,0,.41-.31.66.66,0,0,0,.16-.46.62.62,0,0,0-.17-.44,1.34,1.34,0,0,0-.51-.28,6.69,6.69,0,0,0-.85-.23c-.33-.07-.72-.16-1.16-.28a5.89,5.89,0,0,1-1.05-.34,2.22,2.22,0,0,1-.74-.49,1.67,1.67,0,0,1-.44-.67,2.59,2.59,0,0,1-.15-.93,2.11,2.11,0,0,1,.24-1,2.46,2.46,0,0,1,.66-.78,3.54,3.54,0,0,1,1-.51A4.15,4.15,0,0,1,459.42,61.61Z" style="fill:#455a64"></path></g></g><g id="freepik--Marketing--inject-89"><g id="freepik--marketing--inject-89"><polygon points="103.56 215.94 104.1 215.24 56.75 179.09 56.75 151.26 55.87 151.26 55.87 179.52 56.04 179.66 103.56 215.94" style="fill:#5373FF"></polygon><path d="M105.9,215.59a2.07,2.07,0,1,1-2.07-2.08A2.08,2.08,0,0,1,105.9,215.59Z" style="fill:#5373FF"></path><ellipse cx="56.31" cy="118.22" rx="32.8" ry="33.04" style="fill:#fff"></ellipse><g id="freepik--Bulb--inject-89"><g id="freepik--Socket--inject-89"><path d="M54,143.83c-1.31-.75-1.31-2,0-2.72a5.25,5.25,0,0,1,4.73,0c1.3.75,1.31,2,0,2.73A5.2,5.2,0,0,1,54,143.83Z" style="fill:#263238"></path><path d="M59.47,143.09h-.55a1.68,1.68,0,0,0-.69-.69,4.26,4.26,0,0,0-3.84,0,1.68,1.68,0,0,0-.69.69h-.55l.63,1h0a1.93,1.93,0,0,0,.61.54,4.26,4.26,0,0,0,3.84,0,1.88,1.88,0,0,0,.62-.55h0Z" style="fill:#263238"></path><ellipse cx="56.31" cy="140.94" rx="4.94" ry="2.85" style="fill:#455a64"></ellipse><path d="M52.69,142.3c-2-1.15-2-3,0-4.18a8,8,0,0,1,7.24,0c2,1.16,2,3,0,4.18A8,8,0,0,1,52.69,142.3Z" style="fill:#37474f"></path><path d="M52.6,141.58c-2.05-1.19-2.05-3.11,0-4.29a8.22,8.22,0,0,1,7.42,0c2,1.18,2,3.1,0,4.29A8.22,8.22,0,0,1,52.6,141.58Z" style="fill:#455a64"></path><path d="M52.51,140.85c-2.11-1.22-2.11-3.18,0-4.39a8.37,8.37,0,0,1,7.61,0c2.1,1.21,2.1,3.17,0,4.39A8.41,8.41,0,0,1,52.51,140.85Z" style="fill:#37474f"></path><path d="M52.41,140.12c-2.15-1.24-2.15-3.26,0-4.5a8.64,8.64,0,0,1,7.8,0c2.15,1.24,2.15,3.26,0,4.5A8.64,8.64,0,0,1,52.41,140.12Z" style="fill:#455a64"></path><path d="M52.32,139.39c-2.2-1.27-2.2-3.33,0-4.6a8.83,8.83,0,0,1,8,0c2.2,1.27,2.2,3.33,0,4.6A8.83,8.83,0,0,1,52.32,139.39Z" style="fill:#37474f"></path></g><path d="M62.21,134.17a2.92,2.92,0,0,0-1.73-2.4,9.24,9.24,0,0,0-8.35,0,2.92,2.92,0,0,0-1.72,2.41v2a2.92,2.92,0,0,0,1.73,2.41,9.21,9.21,0,0,0,8.34,0,2.92,2.92,0,0,0,1.73-2.41Z" style="fill:#5373FF"></path><path d="M62.21,134.17a2.92,2.92,0,0,0-1.73-2.4,9.24,9.24,0,0,0-8.35,0,2.92,2.92,0,0,0-1.72,2.41v2a2.92,2.92,0,0,0,1.73,2.41,9.21,9.21,0,0,0,8.34,0,2.92,2.92,0,0,0,1.73-2.41Z" style="fill:#fff;opacity:0.5"></path><path d="M56.31,93.89a17.75,17.75,0,0,0-17.75,17.75c0,14.09,11.63,16.42,11.63,22.1a3,3,0,0,0,1.79,2.5,9.57,9.57,0,0,0,8.66,0,3,3,0,0,0,1.79-2.5h0c0-5.68,11.63-8,11.63-22.1A17.75,17.75,0,0,0,56.31,93.89Z" style="fill:#5373FF"></path><path d="M56.31,93.89a17.75,17.75,0,0,0-17.75,17.75c0,14.09,11.63,16.42,11.63,22.1a3,3,0,0,0,1.79,2.5,9.57,9.57,0,0,0,8.66,0,3,3,0,0,0,1.79-2.5h0c0-5.68,11.63-8,11.63-22.1A17.75,17.75,0,0,0,56.31,93.89Z" style="fill:#fff;opacity:0.6000000000000001"></path><path d="M52.69,135.87c-2-1.16-2-3,0-4.19a8,8,0,0,1,7.24,0c2,1.16,2,3,0,4.19A8,8,0,0,1,52.69,135.87Z" style="fill:#5373FF"></path><path d="M52.69,135.87c-2-1.16-2-3,0-4.19a8,8,0,0,1,7.24,0c2,1.16,2,3,0,4.19A8,8,0,0,1,52.69,135.87Z" style="fill:#fff;opacity:0.4"></path><path d="M60.79,135.2a3.83,3.83,0,0,1-.86.67,8,8,0,0,1-7.24,0,4.15,4.15,0,0,1-.87-.67,4.13,4.13,0,0,1,.87-.66,8,8,0,0,1,7.24,0A3.81,3.81,0,0,1,60.79,135.2Z" style="fill:#5373FF;opacity:0.25"></path><path d="M60.79,135.2a3.83,3.83,0,0,1-.86.67,8,8,0,0,1-7.24,0,4.15,4.15,0,0,1-.87-.67,4.13,4.13,0,0,1,.87-.66,8,8,0,0,1,7.24,0A3.81,3.81,0,0,1,60.79,135.2Z" style="fill:#5373FF;opacity:0.2"></path><path d="M65.34,101.05a3.08,3.08,0,0,0-.62.37,2.61,2.61,0,0,0-.87,2.42c.26,1.72,1.91,2.79,2.87,4.12A15.54,15.54,0,0,1,69,112.8a8.78,8.78,0,0,0,.59,1.84,1.4,1.4,0,0,0,1.77.6,2.6,2.6,0,0,0,1.14-1.91,13.53,13.53,0,0,0-2.27-10.11C69.16,101.54,67.42,100.16,65.34,101.05Z" style="fill:#5373FF;opacity:0.1"></path><path d="M69.16,117.4a1.93,1.93,0,0,0,.19,1.59,1.14,1.14,0,0,0,1.56.35,1.82,1.82,0,0,0,.84-1.53,1.39,1.39,0,0,0-1.15-1.42A1.48,1.48,0,0,0,69.16,117.4Z" style="fill:#5373FF;opacity:0.1"></path><path d="M58.38,135.55h-.2c0-6.32.36-10.28,1.23-13.24a12.41,12.41,0,0,1,.86-2.22,11,11,0,0,1-4-2.33,11,11,0,0,1-4,2.33,12.39,12.39,0,0,1,.87,2.22c.86,3,1.23,6.92,1.23,13.24h-.21c0-6.3-.36-10.24-1.22-13.18a12.1,12.1,0,0,0-.87-2.22c-.2.06-.4.1-.59.14-2.07.34-3.27-.26-3.71-.93a1.34,1.34,0,0,1,0-1.52,1.36,1.36,0,0,1,1.41-.56c.9.14,2,.92,3,2.63a10.58,10.58,0,0,0,3.91-2.3,4.48,4.48,0,0,1-.59-.7,3.43,3.43,0,0,1-.53-3.43,1.42,1.42,0,0,1,2.54,0,3.44,3.44,0,0,1-.54,3.43,4.48,4.48,0,0,1-.59.7,10.7,10.7,0,0,0,3.92,2.3c.93-1.71,2.06-2.49,3-2.63a1.35,1.35,0,0,1,1.41.56,1.33,1.33,0,0,1,0,1.52c-.44.67-1.64,1.27-3.7.93-.2,0-.39-.08-.59-.14a12.07,12.07,0,0,0-.88,2.22C58.75,125.31,58.38,129.25,58.38,135.55ZM60.58,120a4.82,4.82,0,0,0,.52.11c2,.33,3.1-.21,3.5-.83a1.13,1.13,0,0,0,0-1.3,1.17,1.17,0,0,0-1.21-.46C62.55,117.61,61.48,118.34,60.58,120ZM49,117.47a1.15,1.15,0,0,0-1,1.78c.4.62,1.53,1.16,3.49.83A5,5,0,0,0,52,120a4.37,4.37,0,0,0-2.78-2.48A1,1,0,0,0,49,117.47Zm7.29-4.57a1.2,1.2,0,0,0-1.09.67,3.35,3.35,0,0,0,.52,3.23,5.37,5.37,0,0,0,.57.67,4.51,4.51,0,0,0,.56-.67,3.32,3.32,0,0,0,.52-3.23A1.2,1.2,0,0,0,56.31,112.9Z" style="fill:#455a64"></path></g><path d="M56.31,151.75A33.53,33.53,0,1,1,89.6,118.22,33.45,33.45,0,0,1,56.31,151.75Zm0-66.08a32.56,32.56,0,1,0,32.31,32.55A32.46,32.46,0,0,0,56.31,85.67Z" style="fill:#5373FF"></path><g id="freepik--Light--inject-89"><path d="M56.3,88.56a1,1,0,0,1-1-1V78.07a1,1,0,0,1,1.92,0V87.6A1,1,0,0,1,56.3,88.56Z" style="fill:#e0e0e0"></path><path d="M68.35,91.84a1,1,0,0,1-.48-.13,1,1,0,0,1-.35-1.31l4.77-8.26a1,1,0,1,1,1.66,1l-4.77,8.26A1,1,0,0,1,68.35,91.84Z" style="fill:#e0e0e0"></path><path d="M77.15,100.69a.94.94,0,0,1-.83-.48,1,1,0,0,1,.35-1.31l8.26-4.77a1,1,0,0,1,1,1.67l-8.26,4.77A1,1,0,0,1,77.15,100.69Z" style="fill:#e0e0e0"></path><path d="M89.87,112.76H80.34a1,1,0,0,1,0-1.92h9.53a1,1,0,0,1,0,1.92Z" style="fill:#e0e0e0"></path><path d="M85.32,129.58a.94.94,0,0,1-.48-.13l-8.26-4.77a1,1,0,0,1,1-1.66l8.26,4.77a1,1,0,0,1-.48,1.79Z" style="fill:#fff"></path><path d="M27,129.44a1,1,0,0,1-.83-.48,1,1,0,0,1,.35-1.32l8.26-4.76a1,1,0,0,1,1,1.66l-8.26,4.77A1,1,0,0,1,27,129.44Z" style="fill:#fff"></path><path d="M32.1,112.6H22.56a1,1,0,0,1,0-1.92H32.1a1,1,0,1,1,0,1.92Z" style="fill:#e0e0e0"></path><path d="M35.37,100.55a1,1,0,0,1-.48-.13l-8.25-4.77A1,1,0,1,1,27.59,94l8.26,4.77a1,1,0,0,1-.48,1.79Z" style="fill:#e0e0e0"></path><path d="M44.23,91.75a1,1,0,0,1-.83-.48L38.63,83a1,1,0,0,1,1.67-1l4.76,8.26a1,1,0,0,1-.35,1.31A.91.91,0,0,1,44.23,91.75Z" style="fill:#e0e0e0"></path></g><path d="M26.6,66l2.28-4,.16-.19a.44.44,0,0,1,.35-.14h.82a.34.34,0,0,1,.23.1.32.32,0,0,1,.09.23V69.8a.32.32,0,0,1-.09.23.34.34,0,0,1-.23.1h-1A.33.33,0,0,1,29,70a.32.32,0,0,1-.09-.23V65.11l-1.57,2.7a1.27,1.27,0,0,1-.16.2.4.4,0,0,1-.28.1h-.62A.39.39,0,0,1,26,68a1.4,1.4,0,0,1-.17-.2l-1.56-2.7V69.8a.32.32,0,0,1-.09.23.34.34,0,0,1-.23.1H23a.33.33,0,0,1-.23-.1.29.29,0,0,1-.1-.23V62.05a.29.29,0,0,1,.1-.23.33.33,0,0,1,.23-.1h.81a.46.46,0,0,1,.36.14l.16.19Z" style="fill:#455a64"></path><path d="M36.47,61.72a.37.37,0,0,1,.29.11.85.85,0,0,1,.17.3l2.94,7.59a.19.19,0,0,1,0,.08.32.32,0,0,1-.09.23.34.34,0,0,1-.23.1h-.87a.44.44,0,0,1-.33-.11.54.54,0,0,1-.13-.19l-.52-1.34H33.92l-.52,1.34a.46.46,0,0,1-.47.3h-.86a.34.34,0,0,1-.23-.1.32.32,0,0,1-.09-.23.19.19,0,0,1,0-.08l2.94-7.59a.85.85,0,0,1,.17-.3.37.37,0,0,1,.29-.11ZM37.14,67l-1.33-3.42L34.5,67Z" style="fill:#455a64"></path><path d="M44.52,61.72a3.33,3.33,0,0,1,2.27.7,2.45,2.45,0,0,1,.78,1.93,2.67,2.67,0,0,1-.4,1.5,2.32,2.32,0,0,1-1.18.91l1.66,3a.35.35,0,0,1,0,.13.24.24,0,0,1-.08.19.25.25,0,0,1-.18.08h-1A.49.49,0,0,1,46,70a.73.73,0,0,1-.16-.21L44.31,67h-1.6V69.8a.32.32,0,0,1-.09.23.34.34,0,0,1-.23.1h-1a.34.34,0,0,1-.33-.33V62.05a.34.34,0,0,1,.33-.33Zm-1.81,3.79h1.74a2.08,2.08,0,0,0,1.1-.25,1.22,1.22,0,0,0,0-1.81,2.31,2.31,0,0,0-1.1-.23H42.71Z" style="fill:#455a64"></path><path d="M55.63,69.62a.28.28,0,0,1,.07.11.23.23,0,0,1,0,.07.29.29,0,0,1-.1.23.32.32,0,0,1-.22.1H54.25a.61.61,0,0,1-.39-.13l-.17-.15-2.82-3.18V69.8a.32.32,0,0,1-.09.23.34.34,0,0,1-.23.1h-1a.34.34,0,0,1-.33-.33V62.05a.34.34,0,0,1,.33-.33h1a.34.34,0,0,1,.23.1.32.32,0,0,1,.09.23v2.82L53.49,62a.8.8,0,0,1,.23-.19.57.57,0,0,1,.31-.08h1.11a.32.32,0,0,1,.22.1.29.29,0,0,1,.1.23.34.34,0,0,1-.07.18l-3.23,3.52Z" style="fill:#455a64"></path><path d="M62.5,68.63a.32.32,0,0,1,.23.09.3.3,0,0,1,.1.23v.85a.29.29,0,0,1-.1.23.33.33,0,0,1-.23.1H57.23A.32.32,0,0,1,57,70a.29.29,0,0,1-.1-.23V62.05a.29.29,0,0,1,.1-.23.32.32,0,0,1,.22-.1h5.18a.37.37,0,0,1,.23.1.32.32,0,0,1,.09.23v.85a.32.32,0,0,1-.09.23.35.35,0,0,1-.23.09H58.53v1.91h3.61a.34.34,0,0,1,.33.33v.85a.34.34,0,0,1-.1.23.32.32,0,0,1-.23.09H58.53v2Z" style="fill:#455a64"></path><path d="M70,61.72a.32.32,0,0,1,.22.1.29.29,0,0,1,.1.23v.85a.29.29,0,0,1-.1.23.31.31,0,0,1-.22.09H67.87V69.8a.34.34,0,0,1-.33.33h-1a.34.34,0,0,1-.23-.1.32.32,0,0,1-.09-.23V63.22H64.09a.32.32,0,0,1-.23-.09.29.29,0,0,1-.1-.23v-.85a.29.29,0,0,1,.1-.23.33.33,0,0,1,.23-.1Z" style="fill:#455a64"></path><path d="M72,70.13a.32.32,0,0,1-.22-.1.29.29,0,0,1-.1-.23V62.05a.29.29,0,0,1,.1-.23.32.32,0,0,1,.22-.1h1a.3.3,0,0,1,.22.1.29.29,0,0,1,.1.23V69.8a.29.29,0,0,1-.1.23.3.3,0,0,1-.22.1Z" style="fill:#455a64"></path><path d="M80.73,70.13a.42.42,0,0,1-.31-.11l-.16-.17-3.36-5V69.8a.32.32,0,0,1-.09.23.34.34,0,0,1-.23.1h-1a.33.33,0,0,1-.23-.1.29.29,0,0,1-.1-.23V62.05a.29.29,0,0,1,.1-.23.33.33,0,0,1,.23-.1h.84a.43.43,0,0,1,.31.11l.15.17,3.36,5V62.05a.34.34,0,0,1,.33-.33h1a.34.34,0,0,1,.23.1.32.32,0,0,1,.09.23V69.8a.32.32,0,0,1-.09.23.34.34,0,0,1-.23.1Z" style="fill:#455a64"></path><path d="M83.59,64.83a3.68,3.68,0,0,1,.26-1.31,2.7,2.7,0,0,1,.7-1,3.17,3.17,0,0,1,1.12-.66,4.56,4.56,0,0,1,1.55-.23,4.66,4.66,0,0,1,1.72.27,3.09,3.09,0,0,1,1.08.64,2.42,2.42,0,0,1,.57.78,2.22,2.22,0,0,1,.18.68.26.26,0,0,1-.09.24.31.31,0,0,1-.23.08h-1a.33.33,0,0,1-.21-.06.53.53,0,0,1-.12-.14,1.43,1.43,0,0,0-.12-.21,1.48,1.48,0,0,0-.33-.34,2.56,2.56,0,0,0-.58-.31,2.6,2.6,0,0,0-.9-.13,2.09,2.09,0,0,0-1.44.48,1.77,1.77,0,0,0-.57,1.3c0,.31,0,.63,0,1s0,.68,0,1a1.87,1.87,0,0,0,.57,1.45,2.23,2.23,0,0,0,1.44.45,3.47,3.47,0,0,0,.82-.1,1.66,1.66,0,0,0,.64-.31,1.51,1.51,0,0,0,.42-.57,2.26,2.26,0,0,0,.15-.87v-.1H87.79a.32.32,0,0,1-.23-.09.3.3,0,0,1-.1-.23v-.85a.34.34,0,0,1,.33-.33h2.76a.28.28,0,0,1,.22.1.29.29,0,0,1,.1.23V67a3.73,3.73,0,0,1-.23,1.32,2.84,2.84,0,0,1-.68,1,3.23,3.23,0,0,1-1.14.68,4.84,4.84,0,0,1-1.6.25A4.69,4.69,0,0,1,85.64,70a3.2,3.2,0,0,1-1.12-.68,2.94,2.94,0,0,1-.68-1A4.08,4.08,0,0,1,83.59,67c0-.15,0-.32,0-.5s0-.38,0-.57,0-.38,0-.56S83.58,65,83.59,64.83Z" style="fill:#455a64"></path></g></g><g id="freepik--character-2--inject-89"><g id="freepik--Character--inject-89"><g id="freepik--Bottom--inject-89"><path d="M304.76,331.19c.58,11.88,1.41,27.86.46,31.61-.16.63,6.11,3.62,10.51,2.8s5.55-2.39,5.54-2.85c0-1.61,1.33-4.61,1.52-6.21,1.19-10.26,2.14-18.44,3.26-25.66Z" style="fill:#b16668"></path><path d="M369.46,337.56l-20.06-2.63c1.64,10.14,3.38,20.66,4.67,27.77a39.17,39.17,0,0,0,1.52,6.3c.75,4.58,11.62,5.63,14.14-1.52l-.19-6.2C369.53,355.57,369.45,346.08,369.46,337.56Z" style="fill:#b16668"></path><path d="M280.79,385.09a3.28,3.28,0,0,0,1.12,3.09c1.77,1.52,7,4.3,14,3.48s8.76-2.34,11.67-4.41,6.56-6.57,9.7-7.22c2.91-.61,6.38-1.54,7.59-3.06.8-1,.61-4.13.61-4.13Z" style="fill:#263238"></path><path d="M323,355.18a1.24,1.24,0,0,1,1.16.95c.2,1.08.41,4.89.85,6.66a43.68,43.68,0,0,1,.34,11.4c-.4,2-6.42,3.19-9.46,4.3s-5.62,4.45-8.79,7a21.64,21.64,0,0,1-12.83,4.47c-5.34-.08-11.33-1.82-12.69-4.26-1.67-3-1.9-5.89,6-9.42,1.51-.67,6.85-4.77,8.6-5.95a42.45,42.45,0,0,0,5.16-4.27,26.06,26.06,0,0,0,2-2,6.54,6.54,0,0,0,1.12-2.18c.48-1.42.3-3,.56-4.45a.7.7,0,0,1,.14-.38.78.78,0,0,1,.35-.21,9.44,9.44,0,0,1,3.89-.16,15.92,15.92,0,0,1,3.89.9,3.22,3.22,0,0,1,1.78,1.13,2.7,2.7,0,0,1,.34,1.45,10.7,10.7,0,0,0,0,1.5.89.89,0,0,0,.2.5c.27.27.7.05.93-.15a19.78,19.78,0,0,0,2.16-2.49c.38-.45,2.06-.72,2.53-1.08a19.53,19.53,0,0,0,1.35-1.52C323.16,356.41,322.93,355.81,323,355.18Z" style="fill:#37474f"></path><path d="M307.06,385.46a19.54,19.54,0,0,0,3.49-3.15h0s-8.26,3.6-12,1.06c-2.41-1.65-1.24-3.61-1.17-4.23s-5.89-3.38-8.24-3.67h0c-.66.35-1.21.64-1.56.78-7.35,3-7.56,5.82-6.8,8.84,1.36,2.44,6.44,4.94,13.34,5A22.29,22.29,0,0,0,307.06,385.46Z" style="fill:#455a64"></path><path d="M298.05,377.31c-4.94,1.88-2.84,2.8-1.47,3s8.62-5.45,13.71-9.32c5.31-4,9.21-8.73,11.18-10.21.73-.55,2.25-1.49,3-2.13-.12-1.06-.22-2-.31-2.53a1.86,1.86,0,0,0-1.14-1.26l-.31,2a5.56,5.56,0,0,1-1.7.93,6.59,6.59,0,0,0-2.18,1.67,19.78,19.78,0,0,1-2.16,2.49C312.28,367.27,303,375.42,298.05,377.31Z" style="fill:#263238"></path><path d="M296.94,379.61a.45.45,0,0,0,.31-.11.47.47,0,0,0,.07-.67,11.88,11.88,0,0,0-9-3.56.49.49,0,0,0-.44.53.48.48,0,0,0,.54.42,11,11,0,0,1,8.12,3.21A.49.49,0,0,0,296.94,379.61Z" style="fill:#f0f0f0"></path><path d="M301.68,376.37a.55.55,0,0,0,.32-.1.48.48,0,0,0,.09-.67,11.84,11.84,0,0,0-8.9-3.76.48.48,0,1,0,.07,1,11,11,0,0,1,8.05,3.39A.5.5,0,0,0,301.68,376.37Z" style="fill:#f0f0f0"></path><path d="M305.53,373.12a.46.46,0,0,0,.31-.1.47.47,0,0,0,.07-.67,11.81,11.81,0,0,0-9-3.56.48.48,0,1,0,.09.95,10.94,10.94,0,0,1,8.13,3.21A.52.52,0,0,0,305.53,373.12Z" style="fill:#f0f0f0"></path><path d="M309.05,370.41a.62.62,0,0,0,.32-.09.48.48,0,0,0,.1-.67,11.82,11.82,0,0,0-8.82-3.93.48.48,0,0,0-.46.5.49.49,0,0,0,.52.45,11,11,0,0,1,8,3.54A.49.49,0,0,0,309.05,370.41Z" style="fill:#f0f0f0"></path><path d="M312.86,367.56a.43.43,0,0,0,.3-.09.47.47,0,0,0,.12-.66c-1.8-2.45-6-4.2-9.67-4a.48.48,0,0,0-.45.51.47.47,0,0,0,.51.44c3.27-.19,7.22,1.42,8.82,3.59A.44.44,0,0,0,312.86,367.56Z" style="fill:#f0f0f0"></path><path d="M354.58,393.69c.12,4.7.75,7.83,2.32,10.63s4.69,3.77,7.89,3.07,7.35-2.72,8.39-6.74.95-6.79.37-11.16Z" style="fill:#263238"></path><path d="M369.54,361.28c1.1.39,1.16,6.81,1.72,13.14.59,6.79,1.71,8.86,2.25,14.43.63,6.35.11,8.45-2.23,12.21s-10.31,7.26-14,1.65c-3-4.57-2.89-8.82-2.4-15.13a131,131,0,0,0,.44-15.06c-.1-4.74-2.41-9.33-1.25-9.82-.22.09.59,3.31.66,3.58a6,6,0,0,0,.63,1.77c.59.91.93-.52.95-1.07,0-.93-.26-1.69.5-2.45a5.44,5.44,0,0,1,2-1,11.83,11.83,0,0,1,2.41-.61,25.15,25.15,0,0,1,5.06-.11,2.41,2.41,0,0,1,1.92.87,1.34,1.34,0,0,1,.17.51c.11.62,0,1.26.13,1.88,0,.18.08.63.24.74s.44.07.45-.05S369.63,362.38,369.54,361.28Z" style="fill:#37474f"></path><path d="M373.32,386.67c.09.92.54,6.64-1.14,7.68s-2.64-3.67-2.64-3.67-4.14-1.41-10.31,1.05c.28,1-.76,4.2-2.41,3.46s-2-7-2-7.06c-.45,6.05-.49,10.14,2.44,14.58,3.69,5.61,11.66,2.11,14-1.65s2.86-5.86,2.23-12.21C373.45,388.21,373.41,387.25,373.32,386.67Z" style="fill:#455a64"></path><path d="M369.05,391.07c-.05,2.29,2,1.57,2.44-1.64.62-4.8-.43-9.45-.23-15-.56-6.33-.41-13-1.72-13.14,0,1.09-.36,5.43-.36,5.43.26,4.73,1.32,10.28,1,15.14C369.84,386.12,369.09,388.78,369.05,391.07Z" style="fill:#263238"></path><path d="M359.94,391.69c-.36-2.26-1.07-2.92-1.38-7.2s-2.42-12-3.16-16.62c-.2-1.44-1.33-5.12-1.33-5.17-.84.37-.15,3,.41,5.91s.92,4.64,1.25,7.39c.94,5.48.92,11.27,1.56,14.44S360.29,394,359.94,391.69Z" style="fill:#263238"></path><path d="M359.41,391.79a.48.48,0,0,0,.18-.05,15.53,15.53,0,0,1,10.13-.72.48.48,0,0,0,.6-.32.49.49,0,0,0-.32-.61,16.16,16.16,0,0,0-10.83.78.48.48,0,0,0-.23.64A.49.49,0,0,0,359.41,391.79Z" style="fill:#f0f0f0"></path><path d="M358.24,387.2a.42.42,0,0,0,.16,0c.06,0,6-2.51,11.82-1a.49.49,0,0,0,.59-.35.47.47,0,0,0-.34-.59c-6.19-1.65-12.22.9-12.46,1a.49.49,0,0,0-.25.64A.5.5,0,0,0,358.24,387.2Z" style="fill:#f0f0f0"></path><path d="M371,382.51a.49.49,0,0,0,.14-.94c-5.81-2.18-13.62.32-13.87.44a.48.48,0,0,0-.22.65.5.5,0,0,0,.65.23c.05,0,7.69-2.44,13.1-.41A.34.34,0,0,0,371,382.51Z" style="fill:#f0f0f0"></path><path d="M370.19,378.38a.48.48,0,0,0,.15-.93c-6.38-2.53-13.13.8-13.37.93a.49.49,0,0,0-.18.66.48.48,0,0,0,.66.18c.05,0,6.59-3.22,12.53-.87A.39.39,0,0,0,370.19,378.38Z" style="fill:#f0f0f0"></path><path d="M370,373.37a.48.48,0,0,0,.15-.93c-6-2.46-13.2.92-13.46,1.06a.5.5,0,0,0-.2.66.48.48,0,0,0,.66.2c.06,0,7.08-3.31,12.63-1A.41.41,0,0,0,370,373.37Z" style="fill:#ebebeb"></path><path d="M332.64,255.93,329.56,287s.49,9.75.18,18.5-4,33.28-5.74,42.59a19.37,19.37,0,0,1-19,.72s-2.79-50.86-3.21-63.15c-.56-16.33-.2-62.19.12-81.66l60.49-.67s1,10.58,2.24,26.2c.34,15.67,1.27,57.79,1.27,57.79,5.6,18.88,4.43,31.05,4,65.82a18,18,0,0,1-17.77,1.25s-7.82-34.54-10.8-48.54c-1.42-6.68-5.89-34.54-8.69-49.93" style="fill:#455a64"></path><path d="M309.47,234.27l-.35,23.93c.11,3.81-.26,12.19-.11,16s.07,6.36.25,11.58,1.25,34.72,1.38,42.38c-1.61-8.4-2.44-33.56-3.1-42.61-.24-8.2.09-16.27.48-27.39S308.94,241.89,309.47,234.27Z" style="fill:#37474f"></path><path d="M343.86,228.69c2.41,12.64,5.83,45.19,6.55,53.89s7.38,43.18,7.82,51.93c-1.12-8.7-8.79-43-9.58-51.79S345,244.61,343.86,228.69Z" style="fill:#37474f"></path><path d="M327.43,232.86l5.21,23.07L329.56,287l.45-25.52-5.92-25.85a16.46,16.46,0,0,1-12.85-12C317.07,230.85,327.43,232.86,327.43,232.86Z" style="fill:#37474f"></path></g><g id="freepik--Top--inject-89"><path d="M276.52,176.39c-1-.15-1.83-.31-2.58-.49-4.62-1.08-9.54-2.9-10.37-3.07-5.73-1.2-11.54.23-17,2l-2.79.93a13.32,13.32,0,0,1-1.36.42c-.44.08-.81.17-.86.74a1.56,1.56,0,0,0,.4,1.1,4.75,4.75,0,0,0,3.5,1.64,23.17,23.17,0,0,0,4-.28c1-.1.42.89.06,1.32-1.72,2.11-5.8,3.53-8.31,4.43a34.29,34.29,0,0,0-5,1.71A5.38,5.38,0,0,0,233.9,189c-.33.66-.41,1.38.45,1.71a3.65,3.65,0,0,0,1.71.05,4,4,0,0,1,3.21.59,9.28,9.28,0,0,0,1.86,1.46,28.68,28.68,0,0,0,3,.58,22.94,22.94,0,0,1,2.2,1.33,7.41,7.41,0,0,0,3.08.1,24.35,24.35,0,0,0,6.21-1.29,26.65,26.65,0,0,0,6.6-3c1.51-.91,3.24-2.58,6.12-2a51.66,51.66,0,0,1,6.18,1.89Z" style="fill:#b16668"></path><path d="M253.76,180.94a17.59,17.59,0,0,0,9.74.56,7.3,7.3,0,0,1-4.73,1.83A6.82,6.82,0,0,1,253.76,180.94Z" style="fill:#9a4a4d"></path><path d="M312.13,131.73c-9.4,2.16-11.2,6-12.9,16.33-1.61,9.79-5,30.86-5,30.86l-19.15-2.77s-.83,10.89-4.3,14.53c0,0,11.73,3.8,21.1,6.75s12.45,3.48,15.54,1.91c3.78-1.91,6.88-11.55,8.74-22.32C318.89,161.51,312.13,131.73,312.13,131.73Z" style="fill:#37474f"></path><path d="M361.14,132.27c-4-.87-8.25-1.64-15.6-3.21l0-.62L345,129l-2.2-.47-17.42.87s-12.74,2.05-13.29,2.38c-7.78,3.76-9.16,16.76-10.13,35.42-.78,15.23-.57,46.94-.57,46.94s1.78,5.18,22.54,7c26.44,2.31,39.33-7.25,39.33-7.25-.84-9.34-.67-16.17-.77-22.75-.1-6.89,2-21.07,2.74-24.87A55.32,55.32,0,0,0,361.14,132.27Z" style="fill:#263238"></path><path d="M312.57,96.51l-.13-.17a16,16,0,0,1-1.66-3.21c-.94-2.19-3-8.82,1.24-9.14-.9-1-2.22-2.93-.7-4,1.25-.88,3.14-.09,4.56-.13a6.59,6.59,0,0,1-1.51-2,5.25,5.25,0,0,1-.52-2.28c.76.15,1.46.47,2.22.64a19.78,19.78,0,0,0,5.75.11c2.15-.17,4.2-.91,6.34-1.09a40.92,40.92,0,0,1,6.36,0c7,.5,13.89,3.47,15.15,10.69,5.62,1.73,4.9,11,3.46,15.06-2.92,8.27-8.58,15.44-8.71,19.68l-1.77-1.33-8.87-6.66-11.47-8.61-5-3.74C315.73,99.18,313.8,98.09,312.57,96.51Z" style="fill:#263238"></path><path d="M313.07,116.7c1.07,4,3.18,6.37,6.87,7a27.26,27.26,0,0,0,4.65.29l-.07,5.37c-2.57,3.56,0,10.78,1.18,12.43h0c4.62-6.57,15.77-7.81,19-12.39l.08-16.47s2.24,2.6,6,.2a8.16,8.16,0,0,0,2.62-10c-1.82-3.92-5.54-2.33-6.69-1.16s-2.5,3.4-3.45,3.08A3.49,3.49,0,0,1,341,102.7a21.2,21.2,0,0,1-1.14-7.58,8.55,8.55,0,0,1-2.61-2.07c-1.57-1.79-1.69-3.91-1.74-5.83-8-2.58-18.19-1.65-21.53.9-1.95,3.35-1.8,8.57-2,15.69A48.92,48.92,0,0,0,313.07,116.7Z" style="fill:#b16668"></path><path d="M324.6,124c4.09-.19,12.87-2.18,15.08-4.44s3.19-6.94,3.19-6.94-.38,5.91-2.1,8.5-6,3.69-8.62,4.31-7.6,1.15-7.6,1.15Z" style="fill:#9a4a4d"></path><path d="M327.72,100.33a1.69,1.69,0,1,0,1.71-1.74A1.72,1.72,0,0,0,327.72,100.33Z" style="fill:#263238"></path><path d="M314.88,97.68l3.83-1.62a2,2,0,0,0-2.66-1.15A2.18,2.18,0,0,0,314.88,97.68Z" style="fill:#263238"></path><path d="M328.52,95l3.61,2.08a2,2,0,0,0-.69-2.82A2.19,2.19,0,0,0,328.52,95Z" style="fill:#263238"></path><path d="M315.33,100.51a1.69,1.69,0,1,0,3.38,0,1.7,1.7,0,0,0-1.66-1.77A1.74,1.74,0,0,0,315.33,100.51Z" style="fill:#263238"></path><polygon points="324.42 97.2 323.09 109.34 316.59 107.32 324.42 97.2" style="fill:#9a4a4d"></polygon><path d="M328.24,111.05a3,3,0,1,1-5.62,2.25Z" style="fill:#9a4a4d"></path><path d="M327.74,112.67a3,3,0,0,0-2.94,2.47,3,3,0,0,0,3.6-2.38A3.5,3.5,0,0,0,327.74,112.67Z" style="fill:#ffa8a7"></path><path d="M325.72,141.77c2-1.21,6.26-5.25,8.21-2.69s3.37,5.49,4.84,5.08,6.89-4.09,8.77-8a15.69,15.69,0,0,0,1.52-6.15,16.51,16.51,0,0,1-2-3.16c-.81-1.64-1-3.18-2.32-3.28v4.13s-1.09,2.33-5.38,4C333.57,133.81,328.39,136.13,325.72,141.77Z" style="fill:#37474f"></path><path d="M325.72,141.77c-1.19-1.1-1.81-4.37-3.78-3.83s-4.81,5-4.86,3.93,1.3-8.5,2.81-10.7,3.35-6.18,4.69-6.09l-.06,4.27a14,14,0,0,0-.76,4.78C324,135.9,325.49,140.05,325.72,141.77Z" style="fill:#37474f"></path><g id="freepik--Arm--inject-89"><g id="freepik--arm--inject-89"><path d="M355.79,236.83a4.1,4.1,0,0,0-.79,1,1,1,0,0,0,.13,1.18,1.22,1.22,0,0,0,.52.26,4.65,4.65,0,0,0,3.71-.73,10.67,10.67,0,0,0,2.68-2.8,2.64,2.64,0,0,1,.92-.93c1.74-.84.89,2.08.76,2.77a30.55,30.55,0,0,1-1.65,5.67c-.44,1.43-4,4.72-4.81,6.05s-.78,2.86-.13,3.47,2-.31,3.74-2a35,35,0,0,0,3.56-3.54c.64-1,1.32-1.93,1.32-1.93a20.89,20.89,0,0,1-1.37,3.47c-.62,1-3,3.4-3.72,4.61a2.68,2.68,0,0,0,.29,3c.43.46.65,1.16,2.91-1.13a37.12,37.12,0,0,0,3.14-3.5,3.36,3.36,0,0,0,3.31-1.07,33.52,33.52,0,0,0,3.5-5.11,4.65,4.65,0,0,0,2.8-2.38c.91-1.89,2.11-4.92,3-7.36s.36-8.64.82-12.93c.13-1.32,1.4-16.17,2-25.42.45-6.91.08-14.8-.75-18.37-1.95-8.43-1.82-7.37-4.9-19-2-7.52-3.62-12.9-4.94-16.51-2-5.56-3.34-8-11.32-10.93-4.39,3.52-6,12.19-3.2,28.7a162.31,162.31,0,0,0,8.07,22.95s1.19,35.91,1.17,36.54a3.42,3.42,0,0,1-1.4,3c-.94.83-2,1.48-2.91,2.34-2.93,2.83-3.54,7.41-6.24,10.43Z" style="fill:#b16668"></path><path d="M367,251.77a21.82,21.82,0,0,0,3.22-5,26.26,26.26,0,0,0,2-5.65c-.72,1.86-1.44,3.7-2.31,5.48A45.52,45.52,0,0,1,367,251.77Z" style="fill:#9a4a4d"></path><path d="M373.81,245.59a11,11,0,0,0,1.52-2.58,13.5,13.5,0,0,0,.87-2.86c-.47.89-.83,1.8-1.24,2.7Z" style="fill:#9a4a4d"></path><path d="M365.75,245.29a26.29,26.29,0,0,0,2.46-4.54,10.83,10.83,0,0,1-3,6.18Z" style="fill:#9a4a4d"></path></g><path d="M360.08,132.05c7,1.22,9.89,4,11.69,6.9,2.2,3.51,3.23,7.71,7.19,21.35s5.24,19.56,5.35,22.47a81.23,81.23,0,0,1-.9,16.2c-.73,5.83-1.73,13.06-2.81,21.95-4.05,1.57-13.09-.08-15.08-2.73,0-6-.23-11.18-.33-18-.13-8.48-.57-15.08-.57-15.08l-8.49-25.47S351.31,138.65,360.08,132.05Z" style="fill:#37474f"></path></g></g></g></g><g id="freepik--character-1--inject-89"><g id="freepik--character--inject-89"><g id="freepik--bottom--inject-89"><path d="M175.4,352.54l-1.94-17.26,19.66-1.77s-.83,13.3-.72,19.41c.06,2.87,2.09,8.28,2.09,8.28s-8.23,4.28-12.5,2.53-7.09-8.48-7-9.71S175.4,352.54,175.4,352.54Z" style="fill:#ffbda7"></path><path d="M217.28,379.7c.27,0,.48,2.51-1,3.74a19.42,19.42,0,0,1-13.8,3.16c-6.58-1-10.12-3-12.72-5.24s-6.24-5.36-9.22-6.06a21.53,21.53,0,0,1-7.34-3.78c-.88-.86-.68-4.61-.68-4.61Z" style="fill:#263238"></path><path d="M175.4,352.51a1.07,1.07,0,0,0-1,.86c-.22,1-.5,4-1,5.73a30,30,0,0,0-.81,9.1c.32,1.93,5.55,4.33,8.42,5.46a37,37,0,0,1,9.25,6c3,2.58,9.52,5.31,13.82,5.35,5.09.05,10.85-1.47,12.21-3.77,1.68-2.85,2.92-6.17-4.56-9.74-1.41-.68-6.38-3.69-8.07-4.78-4.57-2.94-7.77-5.63-9.81-10.74a2.81,2.81,0,0,0-1.05-1.57,2.45,2.45,0,0,0-1.47-.16c-1.26.15-6.29.75-7.44,1.27s-2.47,1-2.47,2.26a4.18,4.18,0,0,0,.26,1.3c.08.26.15.61-.09.76s-.5,0-.7-.2a20.36,20.36,0,0,1-2-2.44A20,20,0,0,0,177,355a11.24,11.24,0,0,1-1.27-.85C175.29,353.67,175.41,353.11,175.4,352.51Z" style="fill:#455a64"></path><path d="M190.27,379.64c-1.3-1.09-2.68-2.14-4.06-3.09h0s8.77,5.47,12.4,3.12c2.34-1.52,1.28-3.42,1.23-4s8.19-4.72,10.44-4.94h0c.62.35,1.13.65,1.46.79,5.85,2.42,6.58,5.42,5.53,9.17-1.36,2.3-6.51,4.61-13.09,4.5C199.88,385.07,193.32,382.22,190.27,379.64Z" style="fill:#37474f"></path><path d="M199.25,373.86c4.66,1.93,2.64,2.76,1.33,2.92s-9.13-4.51-13.88-8.35c-4.95-4-8.77-9.32-10.61-10.79-.68-.55-1.42-1.22-2.07-1.84.14-1,.26-1.94.36-2.43a1.07,1.07,0,0,1,1-.86c0,.6-.11,1.16.34,1.61A11.24,11.24,0,0,0,177,355a20,20,0,0,1,1.9,2.21,20.36,20.36,0,0,0,2,2.44C184.9,364.81,194.6,371.94,199.25,373.86Z" style="fill:#37474f"></path><path d="M200.26,376.1a.48.48,0,0,1-.3-.11.45.45,0,0,1-.05-.64c1.35-1.58,7.7-5.26,11.14-4.83a.47.47,0,0,1,.41.51.45.45,0,0,1-.52.4c-3.22-.4-9.25,3.26-10.32,4.51A.48.48,0,0,1,200.26,376.1Z" style="fill:#263238"></path><path d="M196.21,373.55a.46.46,0,0,1-.29-.11.45.45,0,0,1-.06-.64c1.36-1.58,7.7-5.25,11.15-4.82a.45.45,0,1,1-.12.9c-3.22-.39-9.25,3.26-10.32,4.51A.46.46,0,0,1,196.21,373.55Z" style="fill:#263238"></path><path d="M192.16,371.13a.46.46,0,0,1-.29-.11.45.45,0,0,1-.06-.64c1.36-1.58,7.7-5.26,11.15-4.82a.46.46,0,0,1,.4.51.45.45,0,0,1-.52.39c-3.22-.39-9.25,3.26-10.32,4.51A.46.46,0,0,1,192.16,371.13Z" style="fill:#263238"></path><path d="M188.42,368.38a.48.48,0,0,1-.3-.11.46.46,0,0,1-.05-.64c1.35-1.58,7.71-5.25,11.15-4.82a.45.45,0,1,1-.12.9c-3.21-.39-9.25,3.26-10.32,4.51A.46.46,0,0,1,188.42,368.38Z" style="fill:#263238"></path><path d="M184.75,365.63a.46.46,0,0,1-.29-.1.46.46,0,0,1-.06-.64c1.86-2.24,8.49-5.29,11.94-4.86a.46.46,0,0,1,.4.51.47.47,0,0,1-.52.4c-3.1-.39-9.45,2.55-11.1,4.53A.45.45,0,0,1,184.75,365.63Z" style="fill:#263238"></path><path d="M142.82,360.64l4.68-20.72-20.45-3.19-.33,20.46s-1.56,5.5-.41,7.39,13.44,3.89,14.56,2.63S142.82,360.64,142.82,360.64Z" style="fill:#ffbda7"></path><path d="M140.78,393.31c-.54,4.65-1.51,7.66-3.53,10.18s-5.59,2.94-9.14,1.7-8-4-8.87-8.13-.48-6.91.55-11.16Z" style="fill:#263238"></path><path d="M126.72,357.19c-1.48-.08-1.08,3.58-1.78,9.85-.76,6.78-3.82,12.1-4.9,17.54-1.25,6.21-1,9.08,1.3,13.21s11,9,15.63,4c3.78-4,4.17-9,4.15-15.32a144.63,144.63,0,0,1,.46-16.13c.52-4.7,2.5-9,1.24-9.73-.13.69-1.39,5.45-2.22,5.37a8.17,8.17,0,0,1,.07-1.78,2.08,2.08,0,0,0-.33-1.58,6.91,6.91,0,0,0-2.39-1.21c-1.44-.44-4-1-5.49-1.27-.73-.15-1.47-.27-2.21-.36a6.57,6.57,0,0,0-1.88,0,1.15,1.15,0,0,0-.83.54,1.73,1.73,0,0,0-.11.72,4.85,4.85,0,0,1-.25,1.27c-.07.18-.22.39-.43.32a.38.38,0,0,1-.22-.41C126.56,361.5,126.67,357.59,126.72,357.19Z" style="fill:#455a64"></path><path d="M120.46,382.82c-.19.89-1.36,6.83.45,8.14s3.29-3.19,3.29-3.19,4.78-.7,11.51,2.8c-.4.94.5,4.3,2.42,3.85s3-7.29,3-7.38c0,6.1-.48,10.87-4.15,14.78-4.64,4.94-13.31.11-15.63-4s-2.55-7-1.3-13.21C120.16,384,120.3,383.37,120.46,382.82Z" style="fill:#37474f"></path><path d="M124.71,388.25c-.14,2.28-2.65,1.2-2.6-2.05s1.75-11.12,2.39-16.42c.43-7.63.74-12.67,2.22-12.59,0,.08,0,.15,0,.23s-.15,4.35-.17,4.84c-.27,4.66-.33,13.72-1,17.93A66.07,66.07,0,0,0,124.71,388.25Z" style="fill:#37474f"></path><path d="M134.92,390.41a66.32,66.32,0,0,0,1.8-7.85c.72-4.16,3.21-12.5,4.44-17,.4-.74,1.66-4.93,1.66-4.93,1,.29,0,4.29-.48,6.16s-1.07,3.87-1.67,6.56c-1.53,5.28-1.68,13.22-2.67,16.26S134.32,392.6,134.92,390.41Z" style="fill:#37474f"></path><path d="M135.85,390.78a.7.7,0,0,1-.2-.08,20.31,20.31,0,0,0-11.34-2.44.61.61,0,0,1-.65-.43.45.45,0,0,1,.42-.54,21.19,21.19,0,0,1,12.12,2.61.49.49,0,0,1,.2.69A.56.56,0,0,1,135.85,390.78Z" style="fill:#263238"></path><path d="M137.32,386a.64.64,0,0,1-.18-.06,25.1,25.1,0,0,0-12.69-2.73.61.61,0,0,1-.64-.44.46.46,0,0,1,.44-.54,26.11,26.11,0,0,1,13.41,2.89.49.49,0,0,1,.23.68A.55.55,0,0,1,137.32,386Z" style="fill:#263238"></path><path d="M125,378.5a.62.62,0,0,1-.45-.38.45.45,0,0,1,.38-.58c6.72-1.18,13.12,2.61,13.39,2.77a.49.49,0,0,1,.2.69.58.58,0,0,1-.75.11c-.06,0-6.28-3.71-12.54-2.61A.45.45,0,0,1,125,378.5Z" style="fill:#263238"></path><path d="M125.64,374.1a.59.59,0,0,1-.44-.38.44.44,0,0,1,.36-.58,19.64,19.64,0,0,1,13.66,2.77.47.47,0,0,1,.15.69.57.57,0,0,1-.76.07,18.69,18.69,0,0,0-12.73-2.57A.49.49,0,0,1,125.64,374.1Z" style="fill:#263238"></path><path d="M126.33,369.16a.61.61,0,0,1-.44-.37.45.45,0,0,1,.35-.59c6.94-1.42,13.49,2.74,13.76,2.92a.48.48,0,0,1,.17.69.57.57,0,0,1-.76.08c-.06,0-6.38-4.06-12.83-2.73A.53.53,0,0,1,126.33,369.16Z" style="fill:#263238"></path><path d="M134.57,200.8c-6.5,15.93-2.24,37.24-2.9,54.61-.78,20.77-1.15,37-1.15,37-.25,2.8-1.84,6.71-3.14,20.48-1.37,14.54-1.32,35.29-1.32,35.29s12.29,5.25,19.93,2.54c0,0,8.2-31.13,12.18-48.25,3.75-16.2,6.52-41.54,6.52-41.54l4.46,24.41s-.56,10.49-.3,17.83c.31,8.53,4.92,41.21,4.92,41.21s11.41,6.84,19.36.32c0,0,3.86-48,4.12-58.23.51-20.14,1.08-59.74-1.3-85.72Z" style="fill:#37474f"></path><path d="M164.69,261l5.09-31.93s11-1.83,15.75-6.41a20.21,20.21,0,0,1-12.28,9.42l-5.33,29.57,1.23,23.76Z" style="fill:#263238"></path><path d="M125.85,348.94c3.43,2.69,13.43,5,20.27,2.51l1.38-5.77c-5.17,1.74-15.8.64-21.53-2.9Z" style="fill:#455a64"></path><path d="M173.77,345.1c2.31,2.35,13,4.3,19.38.58l.47-5.79c-4.8,2.67-15.85,2.22-20.55-.53Z" style="fill:#455a64"></path><path d="M131.32,258.26s-1.07,25.88-1,27.77,14.15,5.61,14.51,4.41c.61-2,.46-6.44,1.67-27.89C134.84,261.05,131.32,258.26,131.32,258.26Z" style="fill:#455a64"></path><path d="M144.31,269.93a4.55,4.55,0,0,0-1.33-.11c-.51,0-1,0-1.54-.08a23.45,23.45,0,0,1-3.24-.49,27.55,27.55,0,0,1-3.56-1.08c-.94-.36-1.83-.85-2.78-1.21-.09,0-.1.14,0,.18a13.22,13.22,0,0,0,3,1.52,24.18,24.18,0,0,0,6.17,1.52c.54.05,1.09.09,1.64.11a3.57,3.57,0,0,0,1.72-.12C144.39,270.13,144.4,270,144.31,269.93Z" style="fill:#37474f"></path><path d="M138.19,266.32c-.14-.27-.24-.43-.54-.47a1,1,0,0,0-.71.18.87.87,0,0,0-.35.59,1,1,0,0,0,.5,1,1,1,0,0,0,1,0,.67.67,0,0,0,.24-.59A1.39,1.39,0,0,0,138.19,266.32Zm-.27.79a.57.57,0,0,1-.71.13c-.36-.21-.28-.9.16-.95a.59.59,0,0,1,.39.1A.58.58,0,0,1,137.92,267.11Z" style="fill:#37474f"></path></g><g id="freepik--top--inject-89"><path d="M194.4,182.38a16.19,16.19,0,0,1-.15-1.82c0-2.06.42-24.37-.35-32.6-1-10.83-9.51-14.15-16-14.92l-.74,49.34Z" style="fill:#ffbda7"></path><path d="M134.37,144.67h0a17.19,17.19,0,0,0,17.19-17.19V84.56h-2.85a14.35,14.35,0,0,0-14.34,14.35Z" style="fill:#37474f"></path><path d="M142.84,90a10.94,10.94,0,0,0-.46,2.19,6.93,6.93,0,0,0,0,1.44,4.85,4.85,0,0,0,4.72,3.9,7.38,7.38,0,0,0,5.68-3c1.83-2.35,4.58-7.89,1-9.86a7.29,7.29,0,0,0-7.59.63A9.4,9.4,0,0,0,142.84,90Z" style="fill:#5373FF"></path><path d="M142.84,90a10.94,10.94,0,0,0-.46,2.19,6.93,6.93,0,0,0,0,1.44,4.85,4.85,0,0,0,4.72,3.9,7.38,7.38,0,0,0,5.68-3c1.83-2.35,4.58-7.89,1-9.86a7.29,7.29,0,0,0-7.59.63A9.4,9.4,0,0,0,142.84,90Z" style="opacity:0.25"></path><path d="M127.23,196.64s5-32.32,8.72-45,9.69-18.12,9.69-18.12l5.12-.88s-6.57,6.69-10.73,20.38-8.77,42.53-8.77,42.53Z" style="fill:#263238"></path><path d="M140.07,183.54c0,1.84-4.67,11.05-7.21,21,15.29,19.71,61.53,15.31,64.84,4.21-.71-13.18-.67-50.45-3.56-56.47C189,141.5,177.9,133,177.9,133a54.9,54.9,0,0,0-8.9-.93,56.08,56.08,0,0,0-14.48.37c-4.29.65-11.33,2.52-11.33,2.52-2.68,2.26-10.12,11.82-8.4,23.34C135.58,163.62,140.08,170.52,140.07,183.54Z" style="fill:#5373FF"></path><path d="M140.07,183.54c0,1.84-4.67,11.05-7.21,21,15.29,19.71,61.53,15.31,64.84,4.21-.71-13.18-.67-50.45-3.56-56.47C189,141.5,177.9,133,177.9,133a54.9,54.9,0,0,0-8.9-.93,56.08,56.08,0,0,0-14.48.37c-4.29.65-11.33,2.52-11.33,2.52-2.68,2.26-10.12,11.82-8.4,23.34C135.58,163.62,140.08,170.52,140.07,183.54Z" style="fill:#fff;opacity:0.2"></path><path d="M126.06,197.43l31.31,12.79,3.68-1.93s-.2,34.76-1,39.51-8.49,9.88-13.89,9.55c-7.83-.48-28-11.93-31.54-14.69s-5.13-3.36-2.37-11.85S126.06,197.43,126.06,197.43Z" style="fill:#455a64"></path><path d="M131.26,195.58c-3.19.4-5,1.43-5.2,1.85-.79,1.45-4.48,18.4,6.8,24,13.64,6.8,21.63,3.06,24.51-11.23l3.68-1.93Z" style="fill:#37474f"></path><path d="M145.64,133.55c4,1.47,13.67,19,13.4,35.95s-1.67,40.72-1.67,40.72l3.68-1.93s1.58-25.37,1.77-38a60.82,60.82,0,0,0-12.06-37.66Z" style="fill:#263238"></path><path d="M233.42,174.65c-1.42-1.34-3.31-.76-4.91-.12-4.14,1.65-6.4,3.55-10.73,4.74-2.35.65-2.95.78-3.78.53-1.14-.7,3.11-4.76,3.41-8.12.15-1.67-1.39-3.69-2.69-1.77-2.74,4-5.88,4.68-7.94,7s-3.25,5.12-7.65,6.65c-4.67,1.63-32.59.46-32.59.46l-10.46-31.74S150.75,138.6,143.19,135c-12.36,2.81-10.4,17.41-9.14,21.65,1.46,5,2.28,8.95,8.7,24.94A163.21,163.21,0,0,0,150,197.43c2.94,5.89,6.51,6.57,16.53,6.57,9.37,0,22.09-2.78,34.74-6.15,5.86-1.57,9.49-2.33,14.63-4a19.89,19.89,0,0,0,5.55-2.58,11.63,11.63,0,0,0,3.81-4.05,3.4,3.4,0,0,1,.52-.88,6.89,6.89,0,0,1,.78-.65,7,7,0,0,0,1.43-1.29,11.21,11.21,0,0,0,.88-1.85c.13-.28.22-.58.38-.86a6.44,6.44,0,0,1,.61-.77,7.37,7.37,0,0,0,1.54-2,1.34,1.34,0,0,0-.16-1.29s.86-.69,1.14-.94a6.86,6.86,0,0,0,1.05-1.17.7.7,0,0,0,.19-.57A.61.61,0,0,0,233.42,174.65Z" style="fill:#ffbda7"></path><path d="M166.54,184c-5.71-1-10,3.55-10,3.55s1.89-6.09,9.46-5.1Z" style="fill:#f0997a"></path><path d="M231.15,177.85c-.84.73-1.75,1.38-2.65,2s-1.84,1.26-2.74,1.9c-.46.3-.9.64-1.39.94s-1,.58-1.46.83a33.32,33.32,0,0,1-3,1.43l1.43-.86c.49-.27,1-.56,1.44-.85s.94-.57,1.4-.88.9-.64,1.36-1c.92-.63,1.85-1.23,2.8-1.81Z" style="fill:#f0997a"></path><path d="M229.34,181.59a13.35,13.35,0,0,1-1.79,1.89c-.65.57-1.32,1.09-2,1.6s-1.4,1-2.13,1.45a19,19,0,0,1-2.25,1.25c.7-.5,1.38-1,2.07-1.52l2.06-1.51,2.06-1.52C228,182.72,228.7,182.15,229.34,181.59Z" style="fill:#f0997a"></path><g id="freepik--Head--inject-89"><path d="M183.91,108.82l1.4-.43c6.32-3.39,6-11.63,4.47-15.92C186.35,82.88,176,79.3,169.59,79c-12.16-.67-18.09,2.47-19.34,8.76-1.65-.14-3.91,1.19-5.28,3.05-3,4.07-6.54,18.24,9.21,33.2Z" style="fill:#37474f"></path><path d="M151.25,119.2a5.62,5.62,0,0,1-5.17-2.34c-2.81-3.35-3-6.66-1.5-8.8,1.2-1.76,4-2.8,5.93-1.51s2.05,2.46,2.78,4,3.78,1.5,4.74-4.42c.89-5.52.64-11.33,3.46-13.73,4.2-3.58,9.45-2.34,11-.07A5.51,5.51,0,0,1,180,90.71c2.66,1.57,4.67,5.81,5.21,16.38.55,10.77-2.23,17.37-4.76,19.08-1.92,1.29-4,1.83-8.07,1.85l.14,4.74s5.46,10.31,5.09,19.51c0,0-2.23-1.54-12.24-10.29l-10.88-9.5L154,117.62A3.45,3.45,0,0,1,151.25,119.2Z" style="fill:#ffbda7"></path><path d="M183.29,101.81l-4-1.36a2,2,0,0,1,2.62-1.37A2.24,2.24,0,0,1,183.29,101.81Z" style="fill:#263238"></path><path d="M168.54,100.85l-3.83,2.43a2.17,2.17,0,0,1,.62-3.1A2.38,2.38,0,0,1,168.54,100.85Z" style="fill:#263238"></path><path d="M162.46,93.08c-1,1.21-1.65,2.42-1.5,6.75.06,1.8-.08,6-1.29,8.51-1,2.2-2.15,3.5-4.49,3.91a8.59,8.59,0,0,1-4.21-.43c-.83-.38-3.16-2-2.88-4.43a5.15,5.15,0,0,0,1.71,1.21,5.24,5.24,0,0,0,1.55.37,4.75,4.75,0,0,0,4-2.21c1.57-2.33,1.46-5.47,1.94-8.13.61-3.4,1.2-7.25,4.26-8.93,3.62-2,10.16-1.1,10.94,2.59A7.18,7.18,0,0,0,162.46,93.08Z" style="fill:#37474f"></path><path d="M169.33,116.67l6,1.4a3.08,3.08,0,0,1-4,2.21A2.9,2.9,0,0,1,169.33,116.67Z" style="fill:#b16668"></path><path d="M173,120.31a3.21,3.21,0,0,0-3.46-2.59l-.3.06a2.73,2.73,0,0,0,2.06,2.5A3.51,3.51,0,0,0,173,120.31Z" style="fill:#f0997a"></path><polygon points="173.4 103.58 175.06 114.07 180.69 111.62 173.4 103.58" style="fill:#f0997a"></polygon><path d="M172.41,128A37.43,37.43,0,0,1,161,125.45c-1.32-.57-3.08-3-4.51-5.7,0,0,1,5.3,3.82,7.15,4.32,2.81,12.13,3.48,12.13,3.48Z" style="fill:#f0997a"></path><path d="M182.42,105c.35.85-.24,1.16-1.06,1.49s-1.56.55-1.9-.3a1.6,1.6,0,1,1,3-1.19Z" style="fill:#263238"></path><path d="M179.55,104.41a4.15,4.15,0,0,1,1.17-.49,3.42,3.42,0,0,1,1.23-.13,3.82,3.82,0,0,1,1.28.31s.06.1,0,.1a11.16,11.16,0,0,0-1.13-.06,5.79,5.79,0,0,0-1.37.24,6.05,6.05,0,0,0-1.54.66c-.16.09-.47.28-.5.31s-.09-.09-.07-.13A2.88,2.88,0,0,1,179.55,104.41Z" style="fill:#263238"></path><path d="M166.36,106.21c-.16.91.49,1.09,1.35,1.24s1.64.2,1.8-.71a1.6,1.6,0,1,0-3.15-.53Z" style="fill:#263238"></path><path d="M169,105a3.79,3.79,0,0,0-1.25-.23,3.18,3.18,0,0,0-1.23.14,3.9,3.9,0,0,0-1.19.57s0,.11,0,.1a10.89,10.89,0,0,1,1.1-.3,5.87,5.87,0,0,1,1.39-.06,6,6,0,0,1,1.65.32l.55.19c.05,0,.07-.1,0-.13A2.64,2.64,0,0,0,169,105Z" style="fill:#263238"></path></g></g></g></g><g id="freepik--speech-bubble--inject-89"><g id="freepik--speech-bubble--inject-89"><g id="freepik--speech-bubble--inject-89"><path d="M245.16,125.66h0Zm-32.23-16.19c4.31,8.76,14.45,16.18,32.2,16.19,7.91,0,14.3-1.49,19.34-3.89,3.4,4.17,10.3,5.72,15.29,3.77a.8.8,0,0,0,0-1.47c-5.07-2.12-6.52-5.71-6.92-8.24a25.62,25.62,0,0,0,4.49-6.36,28.86,28.86,0,0,0-1.86-29.22C269.76,71.52,257.18,66,245.13,66s-24.63,5.49-30.35,14.22A28.86,28.86,0,0,0,212.93,109.47Z" style="fill:#fff"></path><path d="M275.1,126.67a14.38,14.38,0,0,1-10.71-4.54A45.24,45.24,0,0,1,245.16,126h-.06c-21.22,0-29.43-10.25-32.44-16.35h0a29.16,29.16,0,0,1,1.88-29.51c5.62-8.58,17.92-14.35,30.59-14.35s25,5.77,30.6,14.35a29.16,29.16,0,0,1,1.87,29.51,25.36,25.36,0,0,1-4.44,6.32c.43,2.53,2,5.89,6.72,7.88a1.12,1.12,0,0,1,.67,1,1.06,1.06,0,0,1-.68,1A13.18,13.18,0,0,1,275.1,126.67Zm-10.55-5.27.15.18c3.24,4,9.95,5.64,15,3.69a.46.46,0,0,0,.3-.45.49.49,0,0,0-.3-.48c-5.1-2.13-6.68-5.78-7.1-8.47l0-.14.11-.11a25,25,0,0,0,4.44-6.28,28.59,28.59,0,0,0-1.84-28.93c-5.44-8.29-17.82-14.09-30.11-14.09s-24.67,5.8-30.1,14.09a28.59,28.59,0,0,0-1.84,28.93c2.94,6,11,16,31.94,16a44.61,44.61,0,0,0,19.22-3.87Z" style="fill:#455a64"></path></g><path id="freepik--gear--inject-89" d="M266,98.87V93.54a.67.67,0,0,0-.61-.64l-4.75-.52a1.06,1.06,0,0,1-.79-.72,15.12,15.12,0,0,0-1.05-2.56,1.09,1.09,0,0,1-.08-1l3.17-3.94c.16-.2,0-.63-.28-1l-3.44-3.43c-.32-.32-.74-.44-.94-.28l-3.95,3.16a1.07,1.07,0,0,1-1-.07,15.26,15.26,0,0,0-2.57-1.06,1,1,0,0,1-.71-.79L248.47,76a.67.67,0,0,0-.64-.6h-5.34a.63.63,0,0,0-.63.54l-.54,4.87a.85.85,0,0,1-.55.69,15.49,15.49,0,0,0-3,1.23,1.09,1.09,0,0,1-1-.27l-3.43-2.74c-.35-.28-.78-.36-1-.17l-3.92,3.92c-.18.18-.11.61.17,1l2.75,3.42a1.11,1.11,0,0,1,.26,1,16.06,16.06,0,0,0-1.23,3,.84.84,0,0,1-.68.56l-4.88.53a.65.65,0,0,0-.54.64v5.33a.68.68,0,0,0,.61.65l4.75.52a1,1,0,0,1,.79.71,15.57,15.57,0,0,0,1.05,2.57,1.08,1.08,0,0,1,.08,1l-3.17,3.94c-.16.21,0,.63.28.95l3.44,3.43c.32.32.74.45.94.28l4-3.16a1.1,1.1,0,0,1,1,.07,14.92,14.92,0,0,0,2.57,1.06,1,1,0,0,1,.71.79l.52,4.75a.68.68,0,0,0,.64.61h5.34a.64.64,0,0,0,.63-.55l.54-4.87a.85.85,0,0,1,.55-.68,15.17,15.17,0,0,0,3-1.24,1.11,1.11,0,0,1,1.05.27l3.43,2.75c.34.27.77.35,1,.17l3.92-3.92c.18-.19.11-.62-.17-1L259,104.61a1.14,1.14,0,0,1-.27-1,15.17,15.17,0,0,0,1.24-3,.87.87,0,0,1,.68-.56l4.88-.53A.64.64,0,0,0,266,98.87Zm-20.86,6.35a9,9,0,1,1,9-9A9,9,0,0,1,245.16,105.22Z" style="fill:#5373FF"></path></g></g></svg>
