<svg xmlns="http://www.w3.org/2000/svg" viewBox="0 0 750 500"><g id="freepik--background-simple--inject-63"><path d="M676.89,238.18c.63-28.63-.65-57-15.71-82.25-23.82-40-66.25-65.74-110.82-76.36-35.09-8.36-71.65,1.69-104.42,14.31-15.53,6-29.45,14.33-46.41,14.45-18.58.14-36.48-6.78-53.46-13.59-42.78-17.15-93-25.62-138.73-14.33-22.71,5.6-45.22,17.16-61.18,35.14-18.63,21-23.45,47.74-29.3,74.32-7.68,34.82-37.61,60.9-56.41,89.73-20.8,31.89-6.91,75,19.89,98.58C171,458,287.44,353,387.5,369.8c51.75,8.72,101.32,28.45,153.79,33.16,30.42,2.73,63.59,2.21,92.77-9.31,18.73-7.38,37.33-19.64,44.25-39.49,6.27-18,.38-36.67-1.39-54.88C675,279.41,676.43,258.72,676.89,238.18Z" style="fill:#90D2F9"></path><path d="M676.89,238.18c.63-28.63-.65-57-15.71-82.25-23.82-40-66.25-65.74-110.82-76.36-35.09-8.36-71.65,1.69-104.42,14.31-15.53,6-29.45,14.33-46.41,14.45-18.58.14-36.48-6.78-53.46-13.59-42.78-17.15-93-25.62-138.73-14.33-22.71,5.6-45.22,17.16-61.18,35.14-18.63,21-23.45,47.74-29.3,74.32-7.68,34.82-37.61,60.9-56.41,89.73-20.8,31.89-6.91,75,19.89,98.58C171,458,287.44,353,387.5,369.8c51.75,8.72,101.32,28.45,153.79,33.16,30.42,2.73,63.59,2.21,92.77-9.31,18.73-7.38,37.33-19.64,44.25-39.49,6.27-18,.38-36.67-1.39-54.88C675,279.41,676.43,258.72,676.89,238.18Z" style="fill:#fff;opacity:0.7000000000000001"></path></g><g id="freepik--Device--inject-63"><rect x="648.2" y="173.18" width="70.92" height="53.49" style="fill:none;stroke:#263238;stroke-linecap:round;stroke-linejoin:round"></rect><rect x="652.19" y="176.6" width="62.96" height="46.66" style="fill:none;stroke:#263238;stroke-linecap:round;stroke-linejoin:round"></rect><rect x="676.58" y="226.76" width="11.66" height="19.62" style="fill:none;stroke:#263238;stroke-linecap:round;stroke-linejoin:round"></rect><rect x="661.43" y="246.62" width="41.98" height="43.34" style="fill:none;stroke:#263238;stroke-linecap:round;stroke-linejoin:round"></rect><rect x="695.67" y="246.62" width="7.73" height="43.34" style="fill:none;stroke:#263238;stroke-linecap:round;stroke-linejoin:round"></rect><polygon points="682.81 307.05 641 307.05 661.1 290.04 702.91 290.04 682.81 307.05" style="fill:none;stroke:#263238;stroke-linecap:round;stroke-linejoin:round"></polygon><rect x="641" y="307.05" width="41.81" height="108.69" style="fill:none;stroke:#263238;stroke-linecap:round;stroke-linejoin:round"></rect><polygon points="703.37 415.74 682.7 415.74 682.7 307.05 703.37 289.55 703.37 415.74" style="fill:none;stroke:#263238;stroke-linecap:round;stroke-linejoin:round"></polygon></g><g id="freepik--Graphics--inject-63"><path d="M522.08,165.94l6.36,1.45,1.47-6.45-6.11-1.4c0-.18,0-.36,0-.54a14.46,14.46,0,0,0-1.16-5.71l5-3.95-4.13-5.18-4.74,3.78a14.51,14.51,0,0,0-5.75-3.05v-6.18h-6.62v5.93a14.61,14.61,0,0,0-6,2.7l-4.79-3.82-4.13,5.18,4.68,3.73a14.53,14.53,0,0,0-1.56,6.32l-6.1,1.39,1.48,6.45,6-1.37a14.69,14.69,0,0,0,3.88,5l-2.8,5.81,6,2.87,2.76-5.71a14.32,14.32,0,0,0,6.21.15l2.85,5.92,6-2.87L518,170.65A14.73,14.73,0,0,0,522.08,165.94ZM502.7,159a6.5,6.5,0,1,1,6.5,6.49A6.5,6.5,0,0,1,502.7,159Z" style="fill:none;stroke:#263238;stroke-linecap:round;stroke-linejoin:round"></path><path d="M491,139.84l6.36,1.45,1.47-6.46-6.11-1.39c0-.18,0-.36,0-.55a14.62,14.62,0,0,0-1.16-5.7l5-4-4.13-5.17-4.74,3.78a14.6,14.6,0,0,0-5.75-3.06v-6.17h-6.62v5.93a14.48,14.48,0,0,0-6,2.7l-4.79-3.82-4.13,5.17,4.68,3.73a14.6,14.6,0,0,0-1.56,6.32l-6.1,1.39,1.47,6.46,6-1.37a14.79,14.79,0,0,0,3.87,5L466,150l6,2.87,2.75-5.72a14.47,14.47,0,0,0,3.44.42,14.07,14.07,0,0,0,2.77-.27l2.86,5.93,6-2.88L487,144.55A14.83,14.83,0,0,0,491,139.84Zm-19.38-7a6.5,6.5,0,1,1,6.5,6.5A6.5,6.5,0,0,1,471.65,132.89Z" style="fill:none;stroke:#263238;stroke-linecap:round;stroke-linejoin:round"></path><path d="M251.83,179l2.8-3.06-3.1-2.84-2.69,2.94-.29-.19a9.23,9.23,0,0,0-3.52-1.15l-.63-4-4.16.66.6,3.8a9.16,9.16,0,0,0-3.49,2.22l-3.41-1.94-2.09,3.66,3.28,1.86a9.3,9.3,0,0,0-.4,4.17l-3.62,1.45,1.57,3.91,3.53-1.41a9.18,9.18,0,0,0,3,2.84l-1.15,3.81,4,1.22,1.13-3.76a9.2,9.2,0,0,0,4-.56l2.33,3.37,3.46-2.39-2.29-3.32a9.59,9.59,0,0,0,1.31-1.76,8.92,8.92,0,0,0,.72-1.62l4.17.28.29-4.2-4-.28A9.4,9.4,0,0,0,251.83,179Zm-9.93,8.52a4.13,4.13,0,1,1,5.63-1.54A4.12,4.12,0,0,1,241.9,187.55Z" style="fill:none;stroke:#263238;stroke-linecap:round;stroke-linejoin:round"></path><path d="M227.64,188l2.81-3-3.11-2.85L224.65,185l-.29-.19a9.41,9.41,0,0,0-3.52-1.15l-.63-4-4.15.65.59,3.81a9.24,9.24,0,0,0-3.49,2.22l-3.41-1.95-2.09,3.66,3.28,1.87a9.27,9.27,0,0,0-.4,4.17l-3.62,1.44,1.57,3.91,3.53-1.41a9.32,9.32,0,0,0,3,2.85l-1.15,3.8,4,1.22,1.14-3.76a9.18,9.18,0,0,0,4-.56l2.33,3.38,3.46-2.4-2.29-3.32a9.26,9.26,0,0,0,1.31-1.76,9.72,9.72,0,0,0,.73-1.62l4.17.28L233,192l-4.05-.28A9.29,9.29,0,0,0,227.64,188Zm-9.93,8.53a4.13,4.13,0,1,1,5.64-1.55A4.13,4.13,0,0,1,217.71,196.51Z" style="fill:none;stroke:#263238;stroke-linecap:round;stroke-linejoin:round"></path><path d="M583.19,179,586,176l-3.1-2.84-2.69,2.94-.3-.19a9.19,9.19,0,0,0-3.51-1.15l-.63-4-4.16.66.6,3.8a9.28,9.28,0,0,0-3.5,2.22l-3.41-1.94-2.08,3.66,3.28,1.86a9.3,9.3,0,0,0-.4,4.17l-3.62,1.45,1.56,3.91,3.54-1.41a9.09,9.09,0,0,0,3,2.84l-1.15,3.81,4,1.22,1.13-3.76a9.2,9.2,0,0,0,4-.56l2.33,3.37,3.46-2.39-2.29-3.32a10.06,10.06,0,0,0,1.31-1.76,9.66,9.66,0,0,0,.72-1.62l4.17.28.29-4.2-4.05-.28A9.4,9.4,0,0,0,583.19,179Zm-9.93,8.52a4.12,4.12,0,1,1,5.63-1.54A4.13,4.13,0,0,1,573.26,187.55Z" style="fill:none;stroke:#263238;stroke-linecap:round;stroke-linejoin:round"></path><path d="M559,188l2.8-3-3.1-2.85L556,185l-.3-.19a9.3,9.3,0,0,0-3.51-1.15l-.63-4-4.16.65.6,3.81a9.28,9.28,0,0,0-3.5,2.22l-3.41-1.95L539,188.09,542.3,190a9.27,9.27,0,0,0-.4,4.17l-3.62,1.44,1.56,3.91,3.54-1.41a9.32,9.32,0,0,0,3,2.85l-1.15,3.8,4,1.22,1.13-3.76a9.2,9.2,0,0,0,4-.56l2.33,3.38,3.46-2.4-2.29-3.32a9.26,9.26,0,0,0,1.31-1.76,9.66,9.66,0,0,0,.72-1.62l4.17.28.29-4.19-4-.28A9.44,9.44,0,0,0,559,188Zm-9.93,8.53A4.13,4.13,0,1,1,554.7,195,4.14,4.14,0,0,1,549.07,196.51Z" style="fill:none;stroke:#263238;stroke-linecap:round;stroke-linejoin:round"></path><line x1="244.97" y1="133.33" x2="213.64" y2="136.8" style="fill:none;stroke:#263238;stroke-linecap:round;stroke-linejoin:round;stroke-width:10px"></line><line x1="254.56" y1="132.27" x2="237.94" y2="134.11" style="fill:none;stroke:#263238;stroke-linecap:round;stroke-linejoin:round;stroke-width:5px"></line><circle cx="277.9" cy="129.69" r="23.48" transform="translate(-10.31 234.49) rotate(-45)" style="fill:none;stroke:#263238;stroke-linecap:round;stroke-linejoin:round"></circle><path d="M280,148.2a18.62,18.62,0,1,1,16.47-20.56A18.63,18.63,0,0,1,280,148.2Z" style="fill:none;stroke:#263238;stroke-linecap:round;stroke-linejoin:round"></path><rect x="361.1" y="77.9" width="38.17" height="49.92" style="fill:none;stroke:#263238;stroke-linecap:round;stroke-linejoin:round"></rect><path d="M367.15,80.68h0A1.16,1.16,0,0,1,366,79.52V75.17A1.15,1.15,0,0,1,367.15,74h0a1.15,1.15,0,0,1,1.16,1.15v4.35A1.16,1.16,0,0,1,367.15,80.68Z" style="fill:#263238;stroke:#263238;stroke-linecap:round;stroke-linejoin:round"></path><path d="M375.84,80.68h0a1.16,1.16,0,0,1-1.16-1.16V75.17A1.15,1.15,0,0,1,375.84,74h0A1.15,1.15,0,0,1,377,75.17v4.35A1.16,1.16,0,0,1,375.84,80.68Z" style="fill:#263238;stroke:#263238;stroke-linecap:round;stroke-linejoin:round"></path><path d="M384.53,80.68h0a1.16,1.16,0,0,1-1.16-1.16V75.17A1.15,1.15,0,0,1,384.53,74h0a1.14,1.14,0,0,1,1.15,1.15v4.35A1.15,1.15,0,0,1,384.53,80.68Z" style="fill:#263238;stroke:#263238;stroke-linecap:round;stroke-linejoin:round"></path><path d="M393.21,80.68h0a1.16,1.16,0,0,1-1.16-1.16V75.17A1.15,1.15,0,0,1,393.21,74h0a1.15,1.15,0,0,1,1.16,1.15v4.35A1.16,1.16,0,0,1,393.21,80.68Z" style="fill:#263238;stroke:#263238;stroke-linecap:round;stroke-linejoin:round"></path><line x1="366.06" y1="91.68" x2="394.15" y2="91.68" style="fill:none;stroke:#263238;stroke-linecap:round;stroke-linejoin:round"></line><line x1="366.06" y1="98.92" x2="394.15" y2="98.92" style="fill:none;stroke:#263238;stroke-linecap:round;stroke-linejoin:round"></line><line x1="380.25" y1="106.16" x2="394.15" y2="106.16" style="fill:none;stroke:#263238;stroke-linecap:round;stroke-linejoin:round"></line><line x1="380.25" y1="113.4" x2="394.15" y2="113.4" style="fill:none;stroke:#263238;stroke-linecap:round;stroke-linejoin:round"></line><polyline points="365.19 109.34 371.85 115.42 376.78 101.81" style="fill:none;stroke:#263238;stroke-linecap:round;stroke-linejoin:round;stroke-width:2px"></polyline></g><g id="freepik--Machine--inject-63"><rect x="166.1" y="282.94" width="417.07" height="23.68" rx="10.92" style="fill:#fff;stroke:#263238;stroke-linecap:round;stroke-linejoin:round"></rect><rect x="170.49" y="286.69" width="408.29" height="16.17" rx="7.46" style="fill:#263238;stroke:#263238;stroke-linecap:round;stroke-linejoin:round"></rect><circle cx="185.92" cy="294.69" r="7.57" style="fill:#fff;stroke:#263238;stroke-linecap:round;stroke-linejoin:round"></circle><path d="M188.88,294.69a3,3,0,1,0-3,3A3,3,0,0,0,188.88,294.69Z" style="fill:#fff;stroke:#263238;stroke-linecap:round;stroke-linejoin:round"></path><circle cx="223.85" cy="294.69" r="7.57" style="fill:#fff;stroke:#263238;stroke-linecap:round;stroke-linejoin:round"></circle><path d="M226.8,294.69a3,3,0,1,0-3,3A3,3,0,0,0,226.8,294.69Z" style="fill:#fff;stroke:#263238;stroke-linecap:round;stroke-linejoin:round"></path><circle cx="261.77" cy="294.69" r="7.57" style="fill:#fff;stroke:#263238;stroke-linecap:round;stroke-linejoin:round"></circle><path d="M264.73,294.69a3,3,0,1,0-3,3A3,3,0,0,0,264.73,294.69Z" style="fill:#fff;stroke:#263238;stroke-linecap:round;stroke-linejoin:round"></path><circle cx="299.7" cy="294.69" r="7.57" style="fill:#fff;stroke:#263238;stroke-linecap:round;stroke-linejoin:round"></circle><path d="M302.66,294.69a3,3,0,1,0-3,3A3,3,0,0,0,302.66,294.69Z" style="fill:#fff;stroke:#263238;stroke-linecap:round;stroke-linejoin:round"></path><circle cx="446.92" cy="294.69" r="7.57" style="fill:#fff;stroke:#263238;stroke-linecap:round;stroke-linejoin:round"></circle><path d="M449.88,294.69a3,3,0,1,0-3,3A3,3,0,0,0,449.88,294.69Z" style="fill:#fff;stroke:#263238;stroke-linecap:round;stroke-linejoin:round"></path><circle cx="484.85" cy="294.69" r="7.57" style="fill:#fff;stroke:#263238;stroke-linecap:round;stroke-linejoin:round"></circle><path d="M487.81,294.69a3,3,0,1,0-3,3A3,3,0,0,0,487.81,294.69Z" style="fill:#fff;stroke:#263238;stroke-linecap:round;stroke-linejoin:round"></path><circle cx="522.78" cy="294.69" r="7.57" style="fill:#fff;stroke:#263238;stroke-linecap:round;stroke-linejoin:round"></circle><path d="M525.74,294.69a3,3,0,1,0-3,3A3,3,0,0,0,525.74,294.69Z" style="fill:#fff;stroke:#263238;stroke-linecap:round;stroke-linejoin:round"></path><circle cx="560.71" cy="294.69" r="7.57" style="fill:#fff;stroke:#263238;stroke-linecap:round;stroke-linejoin:round"></circle><path d="M563.66,294.69a3,3,0,1,0-2.95,3A3,3,0,0,0,563.66,294.69Z" style="fill:#fff;stroke:#263238;stroke-linecap:round;stroke-linejoin:round"></path><path d="M480.36,306.61a111.21,111.21,0,1,0-211.44,0Z" style="fill:#263238;stroke:#263238;stroke-linecap:round;stroke-linejoin:round"></path><path d="M275.93,295.64H473.35a20,20,0,0,1,20,20v20.74a0,0,0,0,1,0,0H255.91a0,0,0,0,1,0,0V315.65A20,20,0,0,1,275.93,295.64Z" style="fill:#fff;stroke:#263238;stroke-linecap:round;stroke-linejoin:round"></path><path d="M232,330.9H517.27a17.36,17.36,0,0,1,17.36,17.36v67.28a0,0,0,0,1,0,0h-320a0,0,0,0,1,0,0V348.26A17.36,17.36,0,0,1,232,330.9Z" style="fill:#fff;stroke:#263238;stroke-linecap:round;stroke-linejoin:round"></path><rect x="234.11" y="341.03" width="9.82" height="10.36" style="fill:#fff;stroke:#263238;stroke-linecap:round;stroke-linejoin:round"></rect><rect x="251.01" y="341.03" width="9.82" height="10.36" style="fill:#fff;stroke:#263238;stroke-linecap:round;stroke-linejoin:round"></rect><rect x="492.58" y="341.03" width="9.82" height="10.36" style="fill:#fff;stroke:#263238;stroke-linecap:round;stroke-linejoin:round"></rect><rect x="509.48" y="341.03" width="9.82" height="10.36" style="fill:#fff;stroke:#263238;stroke-linecap:round;stroke-linejoin:round"></rect><line x1="261.74" y1="362.84" x2="534.57" y2="362.84" style="fill:#fff;stroke:#263238;stroke-linecap:round;stroke-linejoin:round"></line><line x1="215.02" y1="362.84" x2="254.46" y2="362.84" style="fill:#fff;stroke:#263238;stroke-linecap:round;stroke-linejoin:round"></line><polyline points="223.75 414.65 234.11 401.56 315.9 401.56 315.9 415.19" style="fill:#263238;stroke:#263238;stroke-linecap:round;stroke-linejoin:round"></polyline><polyline points="525.84 414.65 515.48 401.56 433.69 401.56 433.69 415.19" style="fill:#263238;stroke:#263238;stroke-linecap:round;stroke-linejoin:round"></polyline><path d="M349.17,389.18c-.82-.77-1.61-1.57-2.35-2.41" style="fill:#fff;stroke:#263238;stroke-linecap:round;stroke-linejoin:round"></path><path d="M342.86,381.39a35.77,35.77,0,0,1-5.15-18.55h72a36,36,0,0,1-36,36h0a35.8,35.8,0,0,1-19.32-5.62" style="fill:#fff;stroke:#263238;stroke-linecap:round;stroke-linejoin:round"></path><circle cx="374.64" cy="272.05" r="66.54" transform="translate(-38.14 62.33) rotate(-9.05)" style="fill:#fff;stroke:#263238;stroke-linecap:round;stroke-linejoin:round"></circle><line x1="345.03" y1="301.25" x2="421.4" y2="224.88" style="fill:#fff;stroke:#263238;stroke-linecap:round;stroke-linejoin:round"></line><line x1="337.58" y1="308.7" x2="341.42" y2="304.85" style="fill:#fff;stroke:#263238;stroke-linecap:round;stroke-linejoin:round"></line><line x1="327.88" y1="318.39" x2="333.98" y2="312.3" style="fill:#fff;stroke:#263238;stroke-linecap:round;stroke-linejoin:round"></line><circle cx="374.64" cy="272.05" r="22.63" transform="translate(-50.69 89.13) rotate(-12.71)" style="fill:#263238;stroke:#263238;stroke-linecap:round;stroke-linejoin:round"></circle></g><g id="freepik--Floor--inject-63"><line x1="719.92" y1="415.54" x2="734" y2="415.54" style="fill:none;stroke:#263238;stroke-linecap:round;stroke-linejoin:round"></line><line x1="35.98" y1="415.54" x2="708.86" y2="415.54" style="fill:none;stroke:#263238;stroke-linecap:round;stroke-linejoin:round"></line></g><g id="freepik--Box--inject-63"><rect x="513.57" y="244.3" width="44.65" height="38.87" style="fill:#90D2F9;stroke:#263238;stroke-linecap:round;stroke-linejoin:round"></rect><rect x="533.14" y="244.3" width="25.08" height="38.87" style="fill:#90D2F9;stroke:#263238;stroke-linecap:round;stroke-linejoin:round"></rect><line x1="504.74" y1="259.83" x2="510.68" y2="259.83" style="fill:none;stroke:#263238;stroke-linecap:round;stroke-linejoin:round"></line><line x1="506.09" y1="238.77" x2="510.41" y2="241.47" style="fill:none;stroke:#263238;stroke-linecap:round;stroke-linejoin:round"></line><line x1="521.21" y1="233.1" x2="523.37" y2="238.77" style="fill:none;stroke:#263238;stroke-linecap:round;stroke-linejoin:round"></line><line x1="567.37" y1="259.83" x2="561.43" y2="259.83" style="fill:none;stroke:#263238;stroke-linecap:round;stroke-linejoin:round"></line><line x1="566.02" y1="238.77" x2="561.7" y2="241.47" style="fill:none;stroke:#263238;stroke-linecap:round;stroke-linejoin:round"></line><line x1="550.9" y1="233.1" x2="548.74" y2="238.77" style="fill:none;stroke:#263238;stroke-linecap:round;stroke-linejoin:round"></line><line x1="536.05" y1="238.5" x2="536.05" y2="231.21" style="fill:none;stroke:#263238;stroke-linecap:round;stroke-linejoin:round"></line></g><g id="freepik--character-2--inject-63"><polygon points="610.54 291.64 615.6 412.65 624.63 412.65 629.81 315.12 632.34 315.12 641.97 412.65 650.27 412.65 652.44 290.92 610.54 291.64" style="fill:#263238;stroke:#263238;stroke-linecap:round;stroke-linejoin:round"></polygon><rect x="614.15" y="213.98" width="33.95" height="77.66" style="fill:#90D2F9;stroke:#263238;stroke-linecap:round;stroke-linejoin:round"></rect><polygon points="622.98 212.69 622.11 339.83 604.36 339.83 604.36 215.02 622.98 212.69" style="fill:#fff;stroke:#263238;stroke-linecap:round;stroke-linejoin:round"></polygon><polygon points="622.69 255.17 622.98 212.69 619.52 213.12 615.71 226.07 620.65 230.44 616 235.67 622.69 255.17" style="fill:#fff;stroke:#263238;stroke-linecap:round;stroke-linejoin:round"></polygon><path d="M604.36,215l-23.28,41.6s-.29,4.66,3.2,6.4,6.11,1.46,7,.88,14-9.9,14-9.9Z" style="fill:#fff;stroke:#263238;stroke-linecap:round;stroke-linejoin:round"></path><polygon points="622.69 208.32 622.69 216.18 627.35 223.74 634.91 215.02 634.91 205.71 622.69 208.32" style="fill:#fff;stroke:#263238;stroke-linecap:round;stroke-linejoin:round"></polygon><path d="M624.79,178.79h6a7.92,7.92,0,0,1,7.92,7.92V201a10.07,10.07,0,0,1-10.07,10.07h-1.68A10.07,10.07,0,0,1,616.87,201V186.71A7.92,7.92,0,0,1,624.79,178.79Z" style="fill:#fff;stroke:#263238;stroke-linecap:round;stroke-linejoin:round"></path><polyline points="622.75 193.97 622.75 201.82 625.76 201.82" style="fill:#fff;stroke:#263238;stroke-linecap:round;stroke-linejoin:round"></polyline><path d="M621.78,204.29h4.07a5.2,5.2,0,0,0,3.13-1l.33-.24" style="fill:#fff;stroke:#263238;stroke-linecap:round;stroke-linejoin:round"></path><path d="M618.45,191.18a2.53,2.53,0,0,1,3.55,0" style="fill:#fff;stroke:#263238;stroke-linecap:round;stroke-linejoin:round"></path><path d="M626,191.39a3.86,3.86,0,0,1,4.95,0" style="fill:#fff;stroke:#263238;stroke-linecap:round;stroke-linejoin:round"></path><path d="M620.71,194.35c0,.92-.34,1.66-.76,1.66s-.75-.74-.75-1.66.34-1.67.75-1.67S620.71,193.43,620.71,194.35Z" style="fill:#263238"></path><path d="M629.09,194.35c0,.92-.34,1.66-.75,1.66s-.75-.74-.75-1.66.33-1.67.75-1.67S629.09,193.43,629.09,194.35Z" style="fill:#263238"></path><path d="M638.69,193.05s1.46-4.07,2.91-1.16A8.58,8.58,0,0,1,641,200a1.44,1.44,0,0,1-2.33.15Z" style="fill:#fff;stroke:#263238;stroke-linecap:round;stroke-linejoin:round"></path><path d="M638.69,195.83v-8.45a8.58,8.58,0,0,0-8.58-8.59h-4.66a8.54,8.54,0,0,0-6.31,2.79,26.49,26.49,0,0,0,5.88,1.29c2,0,7.85-.59,7.85-.59s-1.74,4.95.29,6.11a12.79,12.79,0,0,0,4.08,1.46v6.4Z" style="fill:#263238;stroke:#263238;stroke-linecap:round;stroke-linejoin:round"></path><path d="M634.91,213.27l.87,126h26.48s-2.62-62.26-2.62-63.13-2.91-9-2.91-9l1.16-52.38Z" style="fill:#fff;stroke:#263238;stroke-linecap:round;stroke-linejoin:round"></path><polygon points="637.53 230.44 643.64 226.94 639.86 213.58 634.91 213.27 635.2 255.47 643.35 235.38 637.53 230.44" style="fill:#fff;stroke:#263238;stroke-linecap:round;stroke-linejoin:round"></polygon><path d="M630.25,254.88l.88,8.43,40.73,4.37s2-2.91,0-9.6-14-43.36-14-43.36V250.8l1.46,2.91Z" style="fill:#fff;stroke:#263238;stroke-linecap:round;stroke-linejoin:round"></path><polygon points="591.56 237.71 603.49 267.97 628.22 267.97 616.87 237.13 591.56 237.71" style="fill:#263238;stroke:#263238;stroke-linecap:round;stroke-linejoin:round"></polygon><polygon points="599.88 237.47 601.52 240.15 609.83 240.14 608.68 237.36 599.88 237.47" style="fill:#fff;stroke:#263238;stroke-linecap:round;stroke-linejoin:round"></polygon><polygon points="630.25 254.88 625.89 251.09 616.58 250.8 616.58 255.17 622.4 257.79 624.73 260.11 630.84 261.57 630.25 254.88" style="fill:#fff;stroke:#263238;stroke-linecap:round;stroke-linejoin:round"></polygon><polygon points="615.48 409.09 601.33 415.54 625.35 415.54 624.55 408.86 615.48 409.09" style="fill:#fff;stroke:#263238;stroke-linecap:round;stroke-linejoin:round"></polygon><polygon points="641.12 409.09 626.98 415.54 651 415.54 650.2 408.86 641.12 409.09" style="fill:#fff;stroke:#263238;stroke-linecap:round;stroke-linejoin:round"></polygon></g></svg>