<svg xmlns="http://www.w3.org/2000/svg" viewBox="0 0 500 500"><g id="freepik--Floor_2--inject-3"><g><path d="M28.5,193.55c-1.56,2.48-2.94,4.79-2.94,4.79,0,0-3.21,5.97-4.59,9.19l-1.38,3.21" style="fill:none; stroke:#263238; stroke-linecap:round; stroke-linejoin:round;"></path><path d="M448.88,212.11h-176.7s-27.56-6.89-34.9-9.19c-7.35-2.3-17.45-1.84-21.13-.92-3.67,.92-14.24,1.84-14.24,1.84l-14.7-6.89-5.97-5.05-9.64-10.56-8.27-12.86-8.27-5.51-11.48-4.59-29.39-13.78h-35.36l-13.32,.46-10.56,9.64-19.29,11.94s-1.84,19.75-3.21,21.13" style="fill:none; stroke:#263238; stroke-linecap:round; stroke-linejoin:round;"></path><line x1="467.82" y1="212.11" x2="457.38" y2="212.11" style="fill:none; stroke:#263238; stroke-linecap:round; stroke-linejoin:round;"></line></g></g><g id="freepik--Floor_1--inject-3"><g><line x1="108.69" y1="450.94" x2="462.93" y2="450.94" style="fill:none; stroke:#263238; stroke-linecap:round; stroke-linejoin:round;"></line><line x1="44.13" y1="450.94" x2="97.64" y2="450.94" style="fill:none; stroke:#263238; stroke-linecap:round; stroke-linejoin:round;"></line></g></g><g id="freepik--Construction_truck_2--inject-3"><g><path d="M317.27,168.29s3.95-32.03-11.85-43.87c-15.79-11.85-82.04-58.79-82.04-58.79l-12.03-12.91c-.55-1.82,.89-3.62,2.79-3.5l18.02,6.32s78.53,38.17,89.06,46.94c10.53,8.77,15.36,25.45,16.23,35.98,.88,10.53,.88,31.15,.88,31.15l-21.06-1.32Z" style="fill:#263238; stroke:#263238; stroke-linecap:round; stroke-linejoin:round;"></path><g><line x1="152.02" y1="68.66" x2="194.43" y2="37.99" style="fill:none; stroke:#263238; stroke-linecap:round; stroke-linejoin:round; stroke-width:6px;"></line><path d="M145.57,82.76l-30.05,1.03c-1.96,.07-3.51,1.67-3.51,3.63s1.44,3.41,3.23,3.61l2.76,19.56c-.74,.67-1.21,1.62-1.21,2.69,0,2.19,1.92,3.88,4.09,3.6l13.29-1.26c1.18-.15,2.04-1.2,1.95-2.39-.09-1.2-1.11-2.12-2.31-2.08l-9.17-1.02-4.56-19.61,25.84-3.28c1.18-.15,2.04-1.2,1.95-2.39-.09-1.2-1.11-2.12-2.31-2.08Z" style="fill:#263238; stroke:#263238; stroke-linecap:round; stroke-linejoin:round;"></path><line x1="123.35" y1="89.76" x2="152.02" y2="68.66" style="fill:none; stroke:#263238; stroke-linecap:round; stroke-linejoin:round; stroke-width:3px;"></line><polygon points="208.9 29.65 190.04 37.11 193.99 42.38 208.9 29.65" style="fill:#fff; stroke:#263238; stroke-linecap:round; stroke-linejoin:round;"></polygon><path d="M189.75,101.01l-7.66,1.44-11.25-.72-2.36,2.36-23.02-8.58h-16.04s-2.63,2.15-3.35,5.03c-.72,2.87,.96,6.46,1.92,11.97,.96,5.51-1.2,11.01,.48,16.52,1.28,4.22,5.38,10.95,14.1,11.94l.02,.03h.2c1.27,.13,2.63,.14,4.1,0h12.7v-3.59h-1.58c11.69-6.84,18.74-21.61,19.77-23.46l2.39,.24,25.62-13.17h-16.04Z" style="fill:#263238; stroke:#263238; stroke-linecap:round; stroke-linejoin:round;"></path><path d="M125.69,102.73l99.89-47.63,6.87-20.6c.52-1.57-.57-3.21-2.22-3.33l-21.31-1.52L122.47,97.34c-1.19,.96-1.52,2.64-.79,3.98h0c.78,1.42,2.5,2.03,4,1.41Z" style="fill:#FFC100; stroke:#263238; stroke-linecap:round; stroke-linejoin:round;"></path><path d="M233.47,34.04c0-1.94-1.57-3.51-3.51-3.51s-3.51,1.57-3.51,3.51,1.57,3.51,3.51,3.51,3.51-1.57,3.51-3.51Z" style="fill:#FFC100; stroke:#263238; stroke-linecap:round; stroke-linejoin:round;"></path><polygon points="118.86 87.57 122.52 113.52 129.54 113.52 123.44 87.26 118.86 87.57" style="fill:#FFC100; stroke:#263238; stroke-linecap:round; stroke-linejoin:round;"></polygon><path d="M149.67,82.76l-30.05,1.03c-1.96,.07-3.51,1.67-3.51,3.63h0c0,2.19,1.92,3.88,4.09,3.6l29.83-3.79c1.18-.15,2.04-1.2,1.95-2.39h0c-.09-1.2-1.11-2.12-2.31-2.08Z" style="fill:#FFC100; stroke:#263238; stroke-linecap:round; stroke-linejoin:round;"></path><path d="M137.92,111.14l-13.52-1.51c-1.96,.07-3.51,1.67-3.51,3.63h0c0,2.19,1.92,3.88,4.09,3.6l13.29-1.26c1.18-.15,2.04-1.2,1.95-2.39h0c-.09-1.2-1.11-2.12-2.31-2.08Z" style="fill:#FFC100; stroke:#263238; stroke-linecap:round; stroke-linejoin:round;"></path><path d="M125.11,114.65l12.7-19.25c1.25-1.51,1.07-3.73-.39-5.03h0c-1.64-1.45-4.18-1.14-5.41,.67l-10.48,20.92c-.67,.98-.46,2.32,.49,3.05h0c.96,.73,2.32,.58,3.09-.35Z" style="fill:#FFC100; stroke:#263238; stroke-linecap:round; stroke-linejoin:round;"></path><path d="M145.46,95.5s-2.63,2.15-3.35,5.03c-.72,2.87,.96,6.46,1.92,11.97,.96,5.51-1.2,11.01,.48,16.52,1.68,5.51,8.14,15.32,23.46,11.01,15.32-4.31,24.66-23.94,25.85-26.09l2.39,.24,9.58-13.17-7.66,1.44-11.25-.72-4.31,4.31-37.11-10.53Z" style="fill:#FFC100; stroke:#263238; stroke-linecap:round; stroke-linejoin:round;"></path></g><g><line x1="250.5" y1="51.24" x2="297.53" y2="90.63" style="fill:none; stroke:#263238; stroke-linecap:round; stroke-linejoin:round; stroke-width:6px;"></line><line x1="229.96" y1="34.04" x2="250.5" y2="51.24" style="fill:none; stroke:#263238; stroke-linecap:round; stroke-linejoin:round; stroke-width:3px;"></line></g><g><line x1="311.17" y1="132.59" x2="314.46" y2="176.84" style="fill:none; stroke:#263238; stroke-linecap:round; stroke-linejoin:round; stroke-width:6px;"></line><line x1="308.82" y1="105.9" x2="311.17" y2="132.59" style="fill:none; stroke:#263238; stroke-linecap:round; stroke-linejoin:round; stroke-width:3px;"></line></g><path d="M323.41,168.29s3.95-32.03-11.85-43.87c-15.79-11.85-82.04-58.79-82.04-58.79l-12.03-12.91c-.55-1.82,.89-3.62,2.79-3.5l18.02,6.32s78.53,38.17,89.06,46.94c10.53,8.77,15.36,25.45,16.23,35.98,.88,10.53,.88,31.15,.88,31.15l-21.06-1.32Z" style="fill:#FFC100; stroke:#263238; stroke-linecap:round; stroke-linejoin:round;"></path><g><path d="M320.87,148.15c-.69-.11-1.24-.68-1.3-1.41l-3.36-42.18c-.07-.85,.57-1.6,1.42-1.67,.85-.07,1.6,.57,1.67,1.42l3.36,42.18c.07,.85-.57,1.6-1.42,1.67-.12,.01-.25,0-.36-.01Z" style="fill:#fff; stroke:#263238; stroke-linecap:round; stroke-linejoin:round;"></path><path d="M320.05,105.14c.2-1.3-.68-2.52-1.98-2.72-1.3-.2-2.52,.68-2.72,1.98-.2,1.3,.68,2.52,1.98,2.72,1.3,.2,2.52-.68,2.72-1.98Z" style="fill:#263238; stroke:#263238; stroke-linecap:round; stroke-linejoin:round;"></path></g><g><rect x="320.13" y="180.07" width="50.85" height="5.57" style="fill:#263238; stroke:#263238; stroke-linecap:round; stroke-linejoin:round;"></rect><rect x="368.15" y="187.39" width="23.68" height="24.73" style="fill:#263238; stroke:#263238; stroke-linecap:round; stroke-linejoin:round;"></rect><rect x="323" y="185.48" width="45.12" height="4.52" style="fill:#263238; stroke:#263238; stroke-linecap:round; stroke-linejoin:round;"></rect><rect x="329" y="188.93" width="33.11" height="5.96" style="fill:#263238; stroke:#263238; stroke-linecap:round; stroke-linejoin:round;"></rect><rect x="312.6" y="194.59" width="65.91" height="5.8" style="fill:#263238; stroke:#263238; stroke-linecap:round; stroke-linejoin:round;"></rect><path d="M384.91,146.29c0,3.27-2.65,5.92-5.92,5.92s-5.92-2.65-5.92-5.92,2.65-5.92,5.92-5.92,5.92,2.65,5.92,5.92Z" style="fill:#263238; stroke:#263238; stroke-linecap:round; stroke-linejoin:round;"></path><path d="M416.95,153.61l-2.94-5.43c-.98-1.8-2.86-2.93-4.91-2.93h-23.84l-7.66,8.01,39.35,.35Z" style="fill:#263238; stroke:#263238; stroke-linecap:round; stroke-linejoin:round;"></path><path d="M329.19,151.17h88.41c2.72,0,4.93,2.21,4.93,4.93v25.37h-93.33v-30.3h0Z" style="fill:#FFC100; stroke:#263238; stroke-linecap:round; stroke-linejoin:round;"></path><path d="M350.74,128.51h-34.73c-2.42,10.05-4.11,23.55-5.2,42.88l-.28,5.45h18.68v-12.11c3.77-2.63,7.8-4.81,11.37-5.36,10.56-1.62,13-7.72,13-7.72l-2.84-23.15Z" style="fill:#263238; stroke:#263238; stroke-linecap:round; stroke-linejoin:round;"></path><path d="M329.41,128.51c-2.64,10.97-4.42,26.03-5.48,48.33h7.89s5.34-8.22,22.16-12.21c10.39-2.47,15.22-10.23,15.22-10.23l-5.07-25.89h-34.73Z" style="fill:#263238; stroke:#263238; stroke-linecap:round; stroke-linejoin:round;"></path><path d="M313.61,162.43h8.48s1.63-20.19,4.4-30.78h-8.8s-3.46,17.59-4.08,30.78Z" style="fill:#fff; stroke:#263238; stroke-linecap:round; stroke-linejoin:round;"></path><path d="M352.19,156.78l-2.7-25.13h-18.56c-.74,4.39-2.81,17.02-3.36,25.13h24.62Z" style="fill:#fff; stroke:#263238; stroke-linecap:round; stroke-linejoin:round;"></path><polygon points="363.43 156.78 360.41 131.65 353.5 131.65 356.22 156.78 363.43 156.78" style="fill:#fff; stroke:#263238; stroke-linecap:round; stroke-linejoin:round;"></polygon><rect x="300.98" y="167.54" width="9.05" height="13.93" style="fill:#FFC100; stroke:#263238; stroke-linecap:round; stroke-linejoin:round;"></rect><rect x="310.53" y="176.84" width="111.99" height="4.62" style="fill:#FFC100; stroke:#263238; stroke-linecap:round; stroke-linejoin:round;"></rect><rect x="310.53" y="176.84" width="13.78" height="4.62" style="fill:#FFC100; stroke:#263238; stroke-linecap:round; stroke-linejoin:round;"></rect><line x1="370.28" y1="157.78" x2="370.28" y2="175.89" style="fill:#fff; stroke:#263238; stroke-linecap:round; stroke-linejoin:round;"></line><line x1="389.09" y1="153.61" x2="389.09" y2="176.24" style="fill:#fff; stroke:#263238; stroke-linecap:round; stroke-linejoin:round;"></line><line x1="416.95" y1="153.61" x2="416.95" y2="176.59" style="fill:#fff; stroke:#263238; stroke-linecap:round; stroke-linejoin:round;"></line><line x1="389.78" y1="164.4" x2="421.48" y2="164.4" style="fill:#fff; stroke:#263238; stroke-linecap:round; stroke-linejoin:round;"></line><g><path d="M293.24,187.39h21.67v24.73h-21.67c-1.11,0-2.01-.9-2.01-2.01v-20.7c0-1.11,.9-2.01,2.01-2.01Z" style="fill:#c4c4c4; stroke:#263238; stroke-linecap:round; stroke-linejoin:round;"></path><line x1="291.33" y1="191.91" x2="314.65" y2="191.91" style="fill:#fff; stroke:#263238; stroke-linecap:round; stroke-linejoin:round;"></line><line x1="291.33" y1="196.34" x2="314.65" y2="196.34" style="fill:#fff; stroke:#263238; stroke-linecap:round; stroke-linejoin:round;"></line><line x1="291.33" y1="200.76" x2="314.65" y2="200.76" style="fill:#fff; stroke:#263238; stroke-linecap:round; stroke-linejoin:round;"></line><line x1="291.33" y1="205.19" x2="314.65" y2="205.19" style="fill:#fff; stroke:#263238; stroke-linecap:round; stroke-linejoin:round;"></line><line x1="291.33" y1="208.45" x2="314.65" y2="208.45" style="fill:#fff; stroke:#263238; stroke-linecap:round; stroke-linejoin:round;"></line><line x1="291.33" y1="210.55" x2="314.65" y2="210.55" style="fill:#fff; stroke:#263238; stroke-linecap:round; stroke-linejoin:round;"></line><line x1="291.33" y1="189.35" x2="314.65" y2="189.35" style="fill:#fff; stroke:#263238; stroke-linecap:round; stroke-linejoin:round;"></line></g><g><path d="M376.44,187.39h20.98c1.49,0,2.7,1.21,2.7,2.7v19.37c0,1.47-1.19,2.66-2.66,2.66h-21.02v-24.73h0Z" style="fill:#c4c4c4; stroke:#263238; stroke-linecap:round; stroke-linejoin:round;"></path><line x1="376.54" y1="191.91" x2="399.86" y2="191.91" style="fill:#fff; stroke:#263238; stroke-linecap:round; stroke-linejoin:round;"></line><line x1="376.54" y1="196.34" x2="399.86" y2="196.34" style="fill:#fff; stroke:#263238; stroke-linecap:round; stroke-linejoin:round;"></line><line x1="376.54" y1="200.76" x2="399.86" y2="200.76" style="fill:#fff; stroke:#263238; stroke-linecap:round; stroke-linejoin:round;"></line><line x1="376.54" y1="205.19" x2="399.86" y2="205.19" style="fill:#fff; stroke:#263238; stroke-linecap:round; stroke-linejoin:round;"></line><line x1="376.54" y1="208.45" x2="399.86" y2="208.45" style="fill:#fff; stroke:#263238; stroke-linecap:round; stroke-linejoin:round;"></line><line x1="376.54" y1="210.55" x2="399.86" y2="210.55" style="fill:#fff; stroke:#263238; stroke-linecap:round; stroke-linejoin:round;"></line><line x1="376.54" y1="189.35" x2="399.86" y2="189.35" style="fill:#fff; stroke:#263238; stroke-linecap:round; stroke-linejoin:round;"></line></g></g><line x1="392.34" y1="155.02" x2="412.12" y2="155.02" style="fill:#fff; stroke:#263238; stroke-linecap:round; stroke-linejoin:round;"></line><line x1="392.34" y1="157" x2="412.12" y2="157" style="fill:#fff; stroke:#263238; stroke-linecap:round; stroke-linejoin:round;"></line><line x1="392.34" y1="158.98" x2="412.12" y2="158.98" style="fill:#fff; stroke:#263238; stroke-linecap:round; stroke-linejoin:round;"></line><line x1="392.34" y1="160.96" x2="412.12" y2="160.96" style="fill:#fff; stroke:#263238; stroke-linecap:round; stroke-linejoin:round;"></line></g></g><g id="freepik--Construction_truck_1--inject-3"><g><path d="M101.09,396.1l6.64,10.51H245.5l13.28-5.53h29.32s8.3,12.17,32.64,10.51v-24.9H96.11l4.98,9.41Z" style="fill:#263238; stroke:#263238; stroke-linecap:round; stroke-linejoin:round;"></path><rect x="90.32" y="340.51" width="283.09" height="53.21" style="fill:#263238; stroke:#263238; stroke-linecap:round; stroke-linejoin:round;"></rect><rect x="251.47" y="351.42" width="48.81" height="42.47" style="fill:#FFC100; stroke:#263238; stroke-linecap:round; stroke-linejoin:round;"></rect><g><polygon points="134.81 316.52 66.2 328.84 66.2 393.72 90.32 393.72 90.32 361.72 208.24 361.72 208.24 322.95 134.81 316.52" style="fill:#FFC100; stroke:#263238; stroke-linecap:round; stroke-linejoin:round;"></polygon><line x1="66.25" y1="381.21" x2="90.53" y2="381.21" style="fill:none; stroke:#263238; stroke-linecap:round; stroke-linejoin:round;"></line><polyline points="90.32 361.72 90.32 348.39 126.84 348.39" style="fill:none; stroke:#263238; stroke-linecap:round; stroke-linejoin:round;"></polyline></g><polygon points="137.22 254.99 141.9 302.09 131.24 312.13 131.24 341.83 210.1 341.83 210.1 302.09 210.22 302.09 210.22 254.99 137.22 254.99" style="fill:#FFC100; stroke:#263238; stroke-linecap:round; stroke-linejoin:round;"></polygon><polygon points="163.51 296.06 143.91 296.06 140.44 261.69 163.51 261.69 163.51 296.06" style="fill:#fff; stroke:#263238; stroke-linecap:round; stroke-linejoin:round;"></polygon><rect x="166.69" y="261.69" width="38.52" height="58.45" style="fill:#FFC100; stroke:#263238; stroke-linecap:round; stroke-linejoin:round;"></rect><rect x="169.36" y="265.37" width="33.18" height="30.99" style="fill:#fff; stroke:#263238; stroke-linecap:round; stroke-linejoin:round;"></rect><rect x="125.6" y="343.88" width="2.47" height="17.89" style="fill:#FFC100; stroke:#263238; stroke-linecap:round; stroke-linejoin:round;"></rect><path d="M155.45,298.26h-29.51v43.58h2.37v-20.47h8.32v21.51h2.37v-21.51h23.15v20.29h2.37v-35.4l-9.05-7.99Zm-27.14,20.67v-18.23h8.32v18.23h-8.32Zm10.68,0v-18.23h15.59l7.56,6.68v11.55h-23.15Z" style="fill:#FFC100; stroke:#263238; stroke-linecap:round; stroke-linejoin:round;"></path><polygon points="222.43 353.75 224.61 353.75 214.53 340.51 125.6 340.51 125.6 346.9 214.53 346.9 222.43 353.75" style="fill:#FFC100; stroke:#263238; stroke-linecap:round; stroke-linejoin:round;"></polygon><rect x="60.51" y="392.61" width="34.55" height="10.49" style="fill:#FFC100; stroke:#263238; stroke-linecap:round; stroke-linejoin:round;"></rect><path d="M447.35,249.66H222.97v-9l-55.91-17.98-30.89-.54v21.58h-4.72v6.48h4.72s76.56,2.29,74.05,4.8l4.31,85.51h158.88l92.58-48.76-18.64-42.09Z" style="fill:#FFC100; stroke:#263238; stroke-linecap:round; stroke-linejoin:round;"></path><g><polygon points="264.49 276.96 279.17 334.82 295.89 334.82 281.21 276.96 264.49 276.96" style="fill:#263238; stroke:#263238; stroke-linecap:round; stroke-linejoin:round;"></polygon><polygon points="452.39 293.28 448.37 276.96 431.66 276.96 437.61 300.92 452.39 293.28" style="fill:#263238; stroke:#263238; stroke-linecap:round; stroke-linejoin:round;"></polygon><polygon points="422.81 308.49 414.94 276.96 398.22 276.96 408.03 316.13 422.81 308.49" style="fill:#263238; stroke:#263238; stroke-linecap:round; stroke-linejoin:round;"></polygon><polygon points="231.06 276.96 245.74 334.82 262.46 334.82 247.78 276.96 231.06 276.96" style="fill:#263238; stroke:#263238; stroke-linecap:round; stroke-linejoin:round;"></polygon><polygon points="393.19 323.85 381.51 276.96 364.79 276.96 378.42 331.49 393.19 323.85" style="fill:#263238; stroke:#263238; stroke-linecap:round; stroke-linejoin:round;"></polygon><polygon points="297.93 276.96 312.6 334.82 329.32 334.82 314.64 276.96 297.93 276.96" style="fill:#263238; stroke:#263238; stroke-linecap:round; stroke-linejoin:round;"></polygon><polygon points="331.36 276.96 346.04 334.82 362.75 334.82 348.07 276.96 331.36 276.96" style="fill:#263238; stroke:#263238; stroke-linecap:round; stroke-linejoin:round;"></polygon></g><g><polygon points="262.42 276.96 277.09 334.82 293.81 334.82 279.13 276.96 262.42 276.96" style="fill:#FFC100; stroke:#263238; stroke-linecap:round; stroke-linejoin:round;"></polygon><polygon points="450.65 294.12 446.29 276.96 429.58 276.96 435.87 301.76 450.65 294.12" style="fill:#FFC100; stroke:#263238; stroke-linecap:round; stroke-linejoin:round;"></polygon><polygon points="421.09 309.4 412.86 276.96 396.15 276.96 406.31 317.04 421.09 309.4" style="fill:#FFC100; stroke:#263238; stroke-linecap:round; stroke-linejoin:round;"></polygon><polygon points="228.98 276.96 243.66 334.82 260.38 334.82 245.7 276.96 228.98 276.96" style="fill:#FFC100; stroke:#263238; stroke-linecap:round; stroke-linejoin:round;"></polygon><polygon points="391.53 324.69 379.43 276.96 362.71 276.96 376.76 332.33 391.53 324.69" style="fill:#FFC100; stroke:#263238; stroke-linecap:round; stroke-linejoin:round;"></polygon><polygon points="295.85 276.96 310.53 334.82 327.24 334.82 312.56 276.96 295.85 276.96" style="fill:#FFC100; stroke:#263238; stroke-linecap:round; stroke-linejoin:round;"></polygon><polygon points="329.28 276.96 343.96 334.82 360.67 334.82 346 276.96 329.28 276.96" style="fill:#FFC100; stroke:#263238; stroke-linecap:round; stroke-linejoin:round;"></polygon></g><line x1="216.71" y1="276.96" x2="455.22" y2="276.96" style="fill:none; stroke:#263238; stroke-linecap:round; stroke-linejoin:round;"></line><polygon points="215.09 265.84 218.85 265.84 214.32 246.61 167.55 246.61 170.46 250.27 211.43 250.27 215.09 265.84" style="fill:#FFC100; stroke:#263238; stroke-linecap:round; stroke-linejoin:round;"></polygon><g><polygon points="95.06 392.61 141.35 372.24 141.35 388.93 95.06 403.1 95.06 392.61" style="fill:#FFC100; stroke:#263238; stroke-linecap:round; stroke-linejoin:round;"></polygon><g><circle cx="175.88" cy="400.71" r="50.23" style="fill:#263238; stroke:#263238; stroke-linecap:round; stroke-linejoin:round;"></circle><circle cx="175.88" cy="400.71" r="24.69" transform="translate(-231.83 241.73) rotate(-45)" style="fill:#FFC100; stroke:#263238; stroke-linecap:round; stroke-linejoin:round;"></circle><circle cx="175.88" cy="400.71" r="17.78" style="fill:#FFC100; stroke:#263238; stroke-linecap:round; stroke-linejoin:round;"></circle></g></g><path d="M231.81,351.42v58.95h19.65v-58.95h-19.65Zm17.35,56.47h-15.04v-11.14h15.04v11.14Zm0-13.39h-15.04v-12.05h15.04v12.05Zm0-14.3h-15.04v-12.05h15.04v12.05Zm0-14.3h-15.04v-11.99h15.04v11.99Z" style="fill:#FFC100; stroke:#263238; stroke-linecap:round; stroke-linejoin:round;"></path><g><circle cx="354.45" cy="400.71" r="50.23" style="fill:#263238; stroke:#263238; stroke-linecap:round; stroke-linejoin:round;"></circle><circle cx="354.45" cy="400.71" r="24.69" transform="translate(-178.04 349.14) rotate(-42.97)" style="fill:#FFC100; stroke:#263238; stroke-linecap:round; stroke-linejoin:round;"></circle><circle cx="354.45" cy="400.71" r="17.78" style="fill:#FFC100; stroke:#263238; stroke-linecap:round; stroke-linejoin:round;"></circle></g><rect x="162.4" y="264.09" width="8.83" height="29.8" style="fill:#263238; stroke:#263238; stroke-linecap:round; stroke-linejoin:round;"></rect></g></g></svg>
